<?xml version="1.0" encoding="UTF-8" standalone="no"?>
<!DOCTYPE svg PUBLIC "-//W3C//DTD SVG 1.1//EN" "http://www.w3.org/Graphics/SVG/1.1/DTD/svg11.dtd">
<svg version="1.1" xmlns="http://www.w3.org/2000/svg" xmlns:xlink="http://www.w3.org/1999/xlink" preserveAspectRatio="xMidYMid meet" viewBox="0 0 640 640" width="640" height="640"><defs><path d="M32.2 6.01L32.3 6.02L32.4 6.04L32.5 6.06L32.59 6.09L32.69 6.12L32.78 6.16L32.87 6.2L32.95 6.24L33.04 6.29L33.12 6.34L33.19 6.4L33.27 6.46L33.34 6.52L33.41 6.59L33.48 6.66L33.54 6.73L33.6 6.81L33.66 6.88L33.71 6.96L33.76 7.05L33.8 7.13L33.84 7.22L33.88 7.31L33.91 7.41L33.94 7.5L33.96 7.6L33.98 7.7L33.99 7.8L34 7.9L34 8L34 10L40 10L39.99 10.35L39.97 10.69L39.93 11.03L39.88 11.36L39.82 11.69L39.74 12.02L39.65 12.34L39.55 12.65L39.43 12.96L39.3 13.26L39.16 13.55L39.01 13.84L38.85 14.12L38.67 14.39L38.49 14.66L38.29 14.92L38.08 15.17L37.87 15.41L37.64 15.64L37.41 15.86L37.17 16.08L36.92 16.28L36.66 16.47L36.39 16.66L36.11 16.83L35.83 16.99L35.54 17.14L35.25 17.28L34.94 17.41L34.63 17.53L34.32 17.63L34 17.72L34 20L40 20L39.99 20.35L39.97 20.69L39.93 21.03L39.88 21.36L39.82 21.69L39.74 22.02L39.65 22.34L39.55 22.65L39.43 22.96L39.3 23.26L39.16 23.55L39.01 23.84L38.85 24.12L38.67 24.39L38.49 24.66L38.29 24.92L38.08 25.17L37.87 25.41L37.64 25.64L37.41 25.86L37.17 26.08L36.92 26.28L36.66 26.47L36.39 26.66L36.11 26.83L35.83 26.99L35.54 27.14L35.25 27.28L34.94 27.41L34.63 27.53L34.32 27.63L34 27.72L34 30L40 30L39.99 30.35L39.97 30.69L39.93 31.03L39.88 31.36L39.82 31.69L39.74 32.02L39.65 32.34L39.55 32.65L39.43 32.96L39.3 33.26L39.16 33.55L39.01 33.84L38.85 34.12L38.67 34.39L38.49 34.66L38.29 34.92L38.08 35.17L37.87 35.41L37.64 35.64L37.41 35.86L37.17 36.08L36.92 36.28L36.66 36.47L36.39 36.66L36.11 36.83L35.83 36.99L35.54 37.14L35.25 37.28L34.94 37.41L34.63 37.53L34.32 37.63L34 37.72L34 40L34 40.1L33.99 40.2L33.98 40.3L33.96 40.4L33.94 40.5L33.91 40.59L33.88 40.69L33.84 40.78L33.8 40.87L33.76 40.95L33.71 41.04L33.66 41.12L33.6 41.19L33.54 41.27L33.48 41.34L33.41 41.41L33.34 41.48L33.27 41.54L33.19 41.6L33.12 41.66L33.04 41.71L32.95 41.76L32.87 41.8L32.78 41.84L32.69 41.88L32.59 41.91L32.5 41.94L32.4 41.96L32.3 41.98L32.2 41.99L32.1 42L32 42L16 42L15.9 42L15.8 41.99L15.7 41.98L15.6 41.96L15.5 41.94L15.41 41.91L15.31 41.88L15.22 41.84L15.13 41.8L15.05 41.76L14.96 41.71L14.88 41.66L14.81 41.6L14.73 41.54L14.66 41.48L14.59 41.41L14.52 41.34L14.46 41.27L14.4 41.19L14.34 41.12L14.29 41.04L14.24 40.95L14.2 40.87L14.16 40.78L14.12 40.69L14.09 40.59L14.06 40.5L14.04 40.4L14.02 40.3L14.01 40.2L14 40.1L14 40L14 37.72L13.68 37.63L13.37 37.53L13.06 37.41L12.75 37.28L12.46 37.14L12.17 36.99L11.89 36.83L11.61 36.66L11.34 36.47L11.08 36.28L10.83 36.08L10.59 35.86L10.36 35.64L10.13 35.41L9.92 35.17L9.71 34.92L9.51 34.66L9.33 34.39L9.15 34.12L8.99 33.84L8.84 33.55L8.7 33.26L8.57 32.96L8.45 32.65L8.35 32.34L8.26 32.02L8.18 31.69L8.12 31.36L8.07 31.03L8.03 30.69L8.01 30.35L8 30L14 30L14 27.72L13.68 27.63L13.37 27.53L13.06 27.41L12.75 27.28L12.46 27.14L12.17 26.99L11.89 26.83L11.61 26.66L11.34 26.47L11.08 26.28L10.83 26.08L10.59 25.86L10.36 25.64L10.13 25.41L9.92 25.17L9.71 24.92L9.51 24.66L9.33 24.39L9.15 24.12L8.99 23.84L8.84 23.55L8.7 23.26L8.57 22.96L8.45 22.65L8.35 22.34L8.26 22.02L8.18 21.69L8.12 21.36L8.07 21.03L8.03 20.69L8.01 20.35L8 20L14 20L14 17.72L13.68 17.63L13.37 17.53L13.06 17.41L12.75 17.28L12.46 17.14L12.17 16.99L11.89 16.83L11.61 16.66L11.34 16.47L11.08 16.28L10.83 16.08L10.59 15.86L10.36 15.64L10.13 15.41L9.92 15.17L9.71 14.92L9.51 14.66L9.33 14.39L9.15 14.12L8.99 13.84L8.84 13.55L8.7 13.26L8.57 12.96L8.45 12.65L8.35 12.34L8.26 12.02L8.18 11.69L8.12 11.36L8.07 11.03L8.03 10.69L8.01 10.35L8 10L14 10L14 8L14 7.9L14.01 7.8L14.02 7.7L14.04 7.6L14.06 7.5L14.09 7.41L14.12 7.31L14.16 7.22L14.2 7.13L14.24 7.05L14.29 6.96L14.34 6.88L14.4 6.81L14.46 6.73L14.52 6.66L14.59 6.59L14.66 6.52L14.73 6.46L14.81 6.4L14.88 6.34L14.96 6.29L15.05 6.24L15.13 6.2L15.22 6.16L15.31 6.12L15.41 6.09L15.5 6.06L15.6 6.04L15.7 6.02L15.8 6.01L15.9 6L16 6L32 6L32.1 6L32.2 6.01ZM21.63 30.77L20.77 31.64L20.2 32.74L20 34L20.2 35.26L20.77 36.36L21.63 37.23L22.73 37.8L24 38L25.27 37.8L26.37 37.23L27.23 36.36L27.8 35.26L28 34L27.8 32.74L27.23 31.64L26.36 30.77L25.26 30.2L24 30L22.73 30.2L21.63 30.77ZM21.63 20.77L20.77 21.64L20.2 22.74L20 24L20.2 25.26L20.77 26.36L21.63 27.23L22.73 27.8L24 28L25.27 27.8L26.37 27.23L27.23 26.36L27.8 25.26L28 24L27.8 22.74L27.23 21.64L26.36 20.77L25.26 20.2L24 20L22.73 20.2L21.63 20.77ZM21.63 10.77L20.77 11.63L20.2 12.73L20 14L20.2 15.26L20.77 16.36L21.63 17.23L22.73 17.8L24 18L25.27 17.8L26.37 17.23L27.23 16.36L27.8 15.26L28 14L27.8 12.73L27.23 11.63L26.36 10.77L25.26 10.2L24 10L22.73 10.2L21.63 10.77Z" id="b11e2IvZwt"></path><path d="M31 -1.23L79 -1.23L79 46.77L31 46.77L31 -1.23Z" id="b2sxej0CN"></path></defs><g><g><g><use xlink:href="#b11e2IvZwt" opacity="1" fill="#a32114" fill-opacity="1"></use><g><use xlink:href="#b11e2IvZwt" opacity="1" fill-opacity="0" stroke="#000000" stroke-width="1" stroke-opacity="0"></use></g></g><g><use xlink:href="#b2sxej0CN" opacity="1" fill="#2c1010" fill-opacity="0"></use><g><use xlink:href="#b2sxej0CN" opacity="1" fill-opacity="0" stroke="#000000" stroke-width="1" stroke-opacity="0"></use></g></g></g></g></svg>