<?xml version="1.0" encoding="UTF-8" standalone="no"?>
<!DOCTYPE svg PUBLIC "-//W3C//DTD SVG 1.1//EN" "http://www.w3.org/Graphics/SVG/1.1/DTD/svg11.dtd">
<svg version="1.1" xmlns="http://www.w3.org/2000/svg" xmlns:xlink="http://www.w3.org/1999/xlink" preserveAspectRatio="xMidYMid meet" viewBox="0 0 640 640" width="640" height="640"><defs><path d="M16.99 14.78C17.17 15.77 18.31 16.64 19.43 16.64C21.16 16.64 22.42 14.9 21.69 13.53C21.18 12.56 19.87 12.01 18.73 12.29C17.69 12.54 16.81 13.79 16.99 14.78Z" id="b74JnUcGlw"></path><path d="M9.32 20.58C9.04 21.25 9.12 22.13 9.51 22.6C9.69 22.84 10.74 23.73 11.84 24.58C11.98 24.68 12.64 25.19 13.82 26.12L13.82 28.91L13.82 31.68L15.07 31.68L16.32 31.68C16.32 29.6 16.32 28.44 16.32 28.21C16.32 25.29 16.28 24.72 16.08 24.58C15.94 24.48 15.33 23.91 14.73 23.3C14.65 23.22 14.28 22.86 13.62 22.2L15.07 20.89L16.52 19.59C17.15 20.09 17.51 20.37 17.58 20.43C19.34 21.85 20.88 22.49 23 22.71C23.06 22.72 23.38 22.75 23.95 22.81L23.95 21.67L23.95 20.54C23.68 20.54 23.53 20.54 23.5 20.54C22.83 20.54 21.32 20.08 20.57 19.66C20.2 19.45 19.17 18.66 18.28 17.9C16.22 16.11 15.32 15.78 14.06 16.28C13.45 16.53 9.52 20.08 9.32 20.58Z" id="bfYNpGXx8"></path><path d="M9.55 24.71L10.84 25.66L11.83 26.89L12.42 28.34L12.53 29.95L12.34 30.9L11.96 31.8L11.41 32.63L10.71 33.36L9.87 33.98L8.9 34.48L7.84 34.82L5.94 34.99L4.17 34.64L2.6 33.85L1.34 32.71L0.49 31.3L0.13 29.72L0.36 28.04L0.69 27.21L1.11 26.48L1.61 25.85L2.2 25.31L2.89 24.84L3.69 24.46L4.6 24.15L6.34 23.89L8.02 24.1L9.55 24.71ZM4.17 26.12L3.22 26.84L2.51 27.76L2.09 28.8L2.03 29.89L2.16 30.41L2.39 30.96L2.7 31.49L3.06 31.96L3.43 32.32L3.99 32.69L4.52 32.97L5.06 33.15L5.66 33.25L6.34 33.28L7.32 33.2L8.19 32.95L8.95 32.55L9.6 31.99L10.15 31.26L10.6 30.1L10.63 28.92L10.24 27.79L9.48 26.81L8.37 26.05L7.81 25.83L7.18 25.68L6.52 25.6L5.88 25.6L5.3 25.68L4.17 26.12Z" id="mTxeGgD7S"></path><path d="M27 24.71L28.29 25.66L29.28 26.89L29.87 28.34L29.98 29.95L29.79 30.9L29.41 31.8L28.86 32.63L28.16 33.36L27.32 33.98L26.35 34.48L25.29 34.82L23.39 34.99L21.62 34.64L20.05 33.85L18.79 32.71L17.94 31.3L17.58 29.72L17.81 28.04L18.14 27.21L18.56 26.48L19.06 25.85L19.65 25.31L20.34 24.84L21.14 24.46L22.05 24.15L23.79 23.89L25.47 24.1L27 24.71ZM21.62 26.12L20.67 26.84L19.96 27.76L19.54 28.8L19.48 29.89L19.61 30.41L19.84 30.96L20.15 31.49L20.51 31.96L20.88 32.32L21.44 32.69L21.96 32.97L22.51 33.15L23.11 33.25L23.79 33.28L24.77 33.2L25.64 32.95L26.4 32.55L27.05 31.99L27.6 31.26L28.05 30.1L28.08 28.92L27.69 27.79L26.93 26.81L25.82 26.05L25.26 25.83L24.63 25.68L23.97 25.6L23.33 25.6L22.75 25.68L21.62 26.12Z" id="g1jiKQpvvf"></path></defs><g><g><g><use xlink:href="#b74JnUcGlw" opacity="1" fill="#c23f00" fill-opacity="1"></use><g><use xlink:href="#b74JnUcGlw" opacity="1" fill-opacity="0" stroke="#000000" stroke-width="1" stroke-opacity="0"></use></g></g><g><use xlink:href="#bfYNpGXx8" opacity="1" fill="#c23f00" fill-opacity="1"></use><g><use xlink:href="#bfYNpGXx8" opacity="1" fill-opacity="0" stroke="#000000" stroke-width="1" stroke-opacity="0"></use></g></g><g><use xlink:href="#mTxeGgD7S" opacity="1" fill="#c23f00" fill-opacity="1"></use><g><use xlink:href="#mTxeGgD7S" opacity="1" fill-opacity="0" stroke="#000000" stroke-width="1" stroke-opacity="0"></use></g></g><g><use xlink:href="#g1jiKQpvvf" opacity="1" fill="#c23f00" fill-opacity="1"></use><g><use xlink:href="#g1jiKQpvvf" opacity="1" fill-opacity="0" stroke="#000000" stroke-width="1" stroke-opacity="0"></use></g></g></g></g></svg>