<svg id="svg" version="1.1" width="512" height="512" xmlns="http://www.w3.org/2000/svg" xmlns:xlink="http://www.w3.org/1999/xlink" style="display: block;"><g id="svgg"><path id="path0" d="M187.109 21.606 C 165.199 26.279,145.393 45.439,141.043 66.170 C 140.565 68.446,140.358 68.595,138.713 67.846 C 134.278 65.825,116.324 69.503,106.624 74.419 C 66.713 94.648,63.227 153.756,100.491 178.416 L 103.715 180.550 101.698 186.564 C 98.659 195.626,98.706 213.893,101.791 223.047 C 115.131 262.621,161.519 278.162,194.997 254.272 L 200.000 250.702 205.003 254.272 C 238.480 278.161,284.901 262.608,298.204 223.047 C 301.304 213.825,301.362 195.563,298.319 186.564 L 296.285 180.550 299.509 178.416 C 336.773 153.756,333.287 94.648,293.376 74.419 C 283.876 69.604,265.729 65.830,261.429 67.775 C 260.514 68.189,259.063 68.251,258.203 67.912 C 256.940 67.415,256.894 67.287,257.966 67.242 C 259.626 67.174,258.192 61.663,254.651 54.504 C 242.169 29.267,214.464 15.772,187.109 21.606 M207.743 57.871 C 216.201 59.684,224.595 67.499,226.774 75.586 C 227.265 77.412,227.883 78.906,228.146 78.906 C 229.069 78.906,227.265 90.187,225.819 93.455 C 224.020 97.523,218.949 103.132,215.290 105.103 L 212.555 106.576 219.363 109.859 C 223.966 112.078,227.598 114.539,230.573 117.453 L 234.974 121.764 235.478 118.612 C 236.896 109.745,246.480 100.077,255.139 98.778 C 257.039 98.493,258.594 98.007,258.594 97.697 C 258.594 95.979,272.189 99.207,276.563 101.963 C 305.053 119.917,278.964 162.592,249.076 146.925 C 243.377 143.938,243.752 143.845,243.738 148.242 C 243.715 155.856,240.890 164.238,235.884 171.548 L 233.700 174.736 237.181 174.208 C 247.060 172.709,259.414 178.320,263.682 186.246 C 264.516 187.795,265.559 189.064,265.998 189.067 C 268.312 189.078,268.001 205.637,265.594 210.616 C 250.633 241.560,203.014 221.505,215.748 189.623 C 216.898 186.745,216.583 186.583,212.317 187.867 C 207.102 189.437,198.727 190.026,193.750 189.174 C 188.557 188.285,188.876 188.000,190.346 192.218 C 198.827 216.560,165.434 237.302,146.013 219.756 C 130.018 205.306,137.539 179.124,158.974 174.639 C 165.577 173.258,165.359 173.702,162.095 168.281 C 158.635 162.536,157.069 157.484,156.479 150.168 C 156.227 147.038,155.808 144.594,155.549 144.737 C 147.864 148.972,145.605 149.609,138.281 149.609 C 105.089 149.609,101.954 103.757,134.766 98.193 C 138.203 97.610,141.133 97.426,141.276 97.785 C 141.419 98.144,142.334 98.438,143.308 98.438 C 151.538 98.438,162.540 108.107,164.879 117.396 L 165.784 120.987 168.381 118.390 C 172.728 114.043,176.223 111.703,182.348 109.041 L 188.203 106.496 184.760 104.069 C 160.851 87.216,178.562 51.612,207.743 57.871 M118.750 159.619 C 118.750 159.754,117.607 160.896,116.211 162.159 L 113.672 164.453 115.966 161.914 C 118.105 159.547,118.750 159.016,118.750 159.619 M248.242 293.520 C 249.209 293.706,250.791 293.706,251.758 293.520 C 252.725 293.334,251.934 293.182,250.000 293.182 C 248.066 293.182,247.275 293.334,248.242 293.520 M279.112 293.529 C 280.300 293.709,282.058 293.704,283.019 293.519 C 283.979 293.333,283.008 293.186,280.859 293.192 C 278.711 293.198,277.925 293.350,279.112 293.529 M315.625 293.546 L 332.031 293.781 332.031 296.091 L 332.031 298.401 318.749 298.643 L 305.467 298.885 318.945 298.857 L 332.422 298.828 332.422 296.094 L 332.422 293.359 315.820 293.336 L 299.218 293.312 315.625 293.546 M206.069 298.222 C 207.473 298.396,209.582 298.393,210.756 298.214 C 211.930 298.036,210.781 297.894,208.203 297.898 C 205.625 297.903,204.664 298.049,206.069 298.222 M223.727 323.438 C 223.727 327.949,223.856 329.795,224.013 327.539 C 224.171 325.283,224.171 321.592,224.013 319.336 C 223.856 317.080,223.727 318.926,223.727 323.438 M258.935 318.164 L 256.641 320.703 259.180 318.409 C 260.576 317.146,261.719 316.004,261.719 315.869 C 261.719 315.266,261.074 315.797,258.935 318.164 M278.834 351.805 C 279.184 352.153,281.188 352.323,283.289 352.183 L 287.109 351.928 282.654 351.550 C 280.203 351.342,278.484 351.457,278.834 351.805 M136.523 352.114 C 137.490 352.300,139.072 352.300,140.039 352.114 C 141.006 351.928,140.215 351.775,138.281 351.775 C 136.348 351.775,135.557 351.928,136.523 352.114 M248.242 352.114 C 249.209 352.300,250.791 352.300,251.758 352.114 C 252.725 351.928,251.934 351.775,250.000 351.775 C 248.066 351.775,247.275 351.928,248.242 352.114 M307.617 352.146 C 312.451 352.283,320.361 352.283,325.195 352.146 C 330.029 352.009,326.074 351.896,316.406 351.896 C 306.738 351.896,302.783 352.009,307.617 352.146 M100.987 352.904 C 102.175 353.084,103.933 353.079,104.894 352.894 C 105.854 352.708,104.883 352.561,102.734 352.567 C 100.586 352.573,99.800 352.725,100.987 352.904 M205.664 352.903 C 206.846 353.082,208.779 353.082,209.961 352.903 C 211.143 352.724,210.176 352.578,207.813 352.578 C 205.449 352.578,204.482 352.724,205.664 352.903 " stroke="none" fill="#a5a5a5" fill-rule="evenodd"></path><path id="path1" d="M0.000 183.164 C 0.000 356.751,0.071 366.375,1.367 367.208 C 2.669 368.045,2.669 368.066,1.367 367.662 C 0.095 367.266,0.000 368.376,0.000 383.618 L 0.000 400.000 200.000 400.000 L 400.000 400.000 400.000 200.000 L 400.000 0.000 200.000 0.000 L 0.000 0.000 0.000 183.164 M215.234 21.511 C 235.426 26.863,253.893 44.647,258.689 63.356 L 259.670 67.188 266.429 67.188 C 324.469 67.188,348.502 146.512,300.155 178.506 C 298.351 179.700,296.875 180.750,296.875 180.841 C 296.875 180.931,297.547 182.958,298.368 185.344 C 317.575 241.172,249.371 290.348,203.402 253.816 C 199.928 251.055,200.072 251.055,196.598 253.816 C 150.271 290.632,81.788 240.485,101.898 184.472 C 102.573 182.592,103.125 180.980,103.125 180.891 C 103.125 180.802,101.163 179.377,98.765 177.725 C 51.535 145.197,76.258 67.188,133.796 67.188 L 140.330 67.188 141.311 63.356 C 146.758 42.107,168.014 23.867,191.797 20.036 C 196.086 19.345,210.482 20.251,215.234 21.511 M196.183 57.932 C 172.851 61.699,166.527 92.021,186.436 104.672 L 189.669 106.727 185.655 108.131 C 179.740 110.200,174.095 113.612,169.589 117.842 C 165.432 121.745,164.855 121.910,164.827 119.206 C 164.623 99.896,131.315 91.406,118.391 107.370 C 99.948 130.153,126.327 160.482,152.061 146.082 C 156.887 143.381,157.031 143.485,157.031 149.657 C 157.031 155.935,159.351 163.356,163.151 169.235 L 166.169 173.904 160.410 174.821 C 131.177 179.472,130.036 220.016,158.996 225.059 C 180.923 228.878,197.352 208.918,188.728 188.938 C 188.228 187.779,188.529 187.724,191.545 188.424 C 196.040 189.466,208.938 188.753,213.066 187.235 C 217.220 185.707,217.422 186.091,215.479 191.817 C 208.316 212.924,231.185 232.835,251.656 223.315 C 277.798 211.158,269.204 174.575,240.223 174.643 L 233.180 174.659 236.489 169.725 C 240.530 163.697,242.969 156.147,242.969 149.657 C 242.969 143.462,243.077 143.389,248.336 146.038 C 267.502 155.692,287.891 144.445,287.891 124.219 C 287.891 93.015,240.950 88.859,235.528 119.583 L 235.036 122.369 230.424 117.926 C 226.393 114.042,218.743 109.473,212.956 107.493 C 211.710 107.066,212.175 106.532,215.723 104.313 C 231.782 94.268,231.012 70.014,214.353 61.163 C 210.299 59.009,208.470 58.467,201.953 57.488 C 201.094 57.359,198.497 57.559,196.183 57.932 M112.189 293.040 C 118.950 294.217,119.760 294.928,118.604 298.663 C 117.913 300.897,117.388 301.492,116.461 301.092 C 106.408 296.747,94.137 297.869,92.242 303.305 C 88.937 312.784,92.362 316.880,105.469 319.127 C 118.798 321.411,121.472 324.089,121.480 335.156 C 121.491 351.646,105.371 358.403,86.126 349.976 L 82.799 348.519 84.145 345.697 C 85.053 343.793,85.881 343.005,86.691 343.275 C 87.351 343.496,89.824 344.384,92.188 345.250 C 97.502 347.197,106.822 347.427,110.172 345.695 C 113.399 344.026,114.063 342.313,114.063 335.655 C 114.063 328.188,113.050 327.256,102.927 325.398 C 88.016 322.662,83.567 318.176,84.529 306.849 C 85.564 294.654,94.847 290.020,112.189 293.040 M167.106 294.141 C 172.561 297.354,173.047 298.779,173.047 311.582 C 173.047 330.819,166.782 336.252,147.461 333.769 L 142.188 333.092 142.188 342.718 L 142.188 352.344 138.272 352.344 L 134.356 352.344 134.561 322.852 L 134.766 293.359 139.453 292.869 C 149.741 291.792,164.252 292.459,167.106 294.141 M221.575 294.594 C 229.188 298.368,230.744 303.675,230.340 324.499 C 229.881 348.219,224.916 353.945,205.655 352.969 C 189.756 352.164,185.531 345.788,185.566 322.656 C 185.597 302.286,188.677 295.754,199.609 292.870 C 204.605 291.552,217.478 292.562,221.575 294.594 M253.125 306.641 L 253.125 320.313 255.061 320.313 C 257.439 320.313,263.181 313.639,271.358 301.372 L 276.953 292.978 280.748 292.973 C 283.884 292.970,284.460 293.183,284.069 294.202 C 283.228 296.393,274.461 308.798,268.881 315.693 L 263.452 322.401 266.193 324.589 C 268.351 326.311,284.322 346.855,287.010 351.367 C 287.447 352.101,286.521 352.344,283.290 352.344 L 278.987 352.344 271.608 341.992 C 262.843 329.695,259.883 326.674,255.988 326.041 L 253.125 325.577 253.125 338.960 L 253.125 352.344 249.609 352.344 L 246.094 352.344 246.094 322.656 L 246.094 292.969 249.609 292.969 L 253.125 292.969 253.125 306.641 M332.813 296.094 L 332.813 299.219 319.531 299.219 L 306.250 299.219 306.250 308.984 L 306.250 318.750 316.797 318.750 L 327.344 318.750 327.344 321.875 L 327.344 325.000 316.797 325.000 L 306.250 325.000 306.250 335.547 L 306.250 346.094 319.922 346.094 L 333.594 346.094 333.594 349.219 L 333.594 352.344 316.406 352.344 L 299.219 352.344 299.219 322.656 L 299.219 292.969 316.016 292.969 L 332.813 292.969 332.813 296.094 M142.188 312.799 L 142.188 327.160 148.076 327.712 C 164.102 329.214,166.944 326.352,166.291 309.365 C 165.894 299.055,165.082 298.438,151.910 298.438 L 142.188 298.438 142.188 312.799 M201.005 298.941 C 194.524 300.361,192.731 306.093,193.110 324.183 C 193.522 343.867,195.115 346.331,207.678 346.716 C 221.523 347.139,223.005 344.855,223.030 323.047 C 223.049 306.681,222.393 303.860,217.791 300.497 C 215.658 298.939,205.370 297.985,201.005 298.941 M114.601 377.930 C 114.405 378.682,114.244 378.066,114.244 376.563 C 114.244 375.059,114.405 374.443,114.601 375.195 C 114.798 375.947,114.798 377.178,114.601 377.930 M286.476 377.930 C 286.280 378.682,286.119 378.066,286.119 376.563 C 286.119 375.059,286.280 374.443,286.476 375.195 C 286.673 375.947,286.673 377.178,286.476 377.930 M47.490 382.107 L 47.251 387.891 46.868 381.481 C 46.657 377.955,46.765 375.352,47.107 375.697 C 47.449 376.041,47.622 378.926,47.490 382.107 M219.365 382.107 L 219.126 387.891 218.743 381.481 C 218.532 377.955,218.640 375.352,218.982 375.697 C 219.324 376.041,219.497 378.926,219.365 382.107 M391.240 382.107 L 391.001 387.891 390.618 381.481 C 390.407 377.955,390.515 375.352,390.857 375.697 C 391.199 376.041,391.372 378.926,391.240 382.107 M129.860 386.451 C 129.980 389.097,129.814 391.098,129.492 390.897 C 129.170 390.697,128.959 387.653,129.023 384.134 C 129.146 377.405,129.492 378.363,129.860 386.451 M301.735 386.451 C 301.855 389.097,301.689 391.098,301.367 390.897 C 301.045 390.697,300.834 387.653,300.898 384.134 C 301.021 377.405,301.367 378.363,301.735 386.451 M16.419 385.741 L 16.042 391.016 15.789 386.812 C 15.567 383.122,15.896 380.472,16.577 380.467 C 16.698 380.466,16.627 382.839,16.419 385.741 M29.459 384.561 C 29.272 385.533,29.112 384.922,29.103 383.203 C 29.095 381.484,29.247 380.689,29.443 381.436 C 29.639 382.183,29.646 383.589,29.459 384.561 M188.294 385.741 L 187.917 391.016 187.664 386.812 C 187.442 383.122,187.771 380.472,188.452 380.467 C 188.573 380.466,188.502 382.839,188.294 385.741 M201.334 384.561 C 201.147 385.533,200.987 384.922,200.978 383.203 C 200.970 381.484,201.122 380.689,201.318 381.436 C 201.514 382.183,201.521 383.589,201.334 384.561 M360.169 385.741 L 359.792 391.016 359.539 386.812 C 359.317 383.122,359.646 380.472,360.327 380.467 C 360.448 380.466,360.377 382.839,360.169 385.741 M373.209 384.561 C 373.022 385.533,372.862 384.922,372.853 383.203 C 372.845 381.484,372.997 380.689,373.193 381.436 C 373.389 382.183,373.396 383.589,373.209 384.561 M126.563 387.085 C 126.563 390.049,126.362 390.499,125.235 390.066 C 124.404 389.748,124.258 389.440,124.844 389.245 C 125.360 389.073,125.781 387.731,125.781 386.263 C 125.781 384.795,125.957 383.594,126.172 383.594 C 126.387 383.594,126.563 385.165,126.563 387.085 M298.438 387.085 C 298.438 390.049,298.237 390.499,297.110 390.066 C 296.279 389.748,296.133 389.440,296.719 389.245 C 297.235 389.073,297.656 387.731,297.656 386.263 C 297.656 384.795,297.832 383.594,298.047 383.594 C 298.262 383.594,298.438 385.165,298.438 387.085 " stroke="none" fill="#ffffff" fill-rule="evenodd"></path><path id="path2" d="M94.368 293.741 C 88.294 295.572,85.156 300.619,85.156 308.559 C 85.156 319.070,89.125 322.634,103.445 324.984 C 113.127 326.574,114.845 328.247,114.841 336.081 C 114.834 347.145,104.933 350.974,90.791 345.383 C 85.610 343.335,85.596 343.336,84.490 345.762 C 82.777 349.522,87.744 351.538,100.209 352.139 C 115.658 352.885,121.109 348.346,121.072 334.766 C 121.045 324.702,118.345 322.118,105.272 319.639 C 93.299 317.370,91.276 315.803,91.169 308.720 C 91.015 298.543,99.939 294.818,113.270 299.496 C 117.159 300.860,117.954 300.501,118.195 297.266 C 118.461 293.704,102.382 291.325,94.368 293.741 M138.086 293.538 L 135.156 293.844 135.156 322.703 L 135.156 351.563 138.281 351.563 L 141.406 351.563 141.406 342.163 L 141.406 332.763 149.487 333.286 C 167.090 334.424,172.038 330.408,173.175 314.063 C 174.524 294.660,167.370 290.475,138.086 293.538 M197.363 294.116 C 188.550 297.258,186.328 303.004,186.328 322.656 C 186.328 347.143,190.133 352.328,208.112 352.339 C 225.867 352.351,229.987 346.701,230.046 322.266 C 230.106 297.547,226.561 292.914,207.662 293.003 C 203.549 293.022,199.076 293.506,197.363 294.116 M246.875 322.656 L 246.875 351.563 250.000 351.563 L 253.125 351.563 253.125 338.672 L 253.125 325.781 255.832 325.781 C 259.683 325.781,262.848 328.862,271.626 341.154 L 279.059 351.563 282.867 351.563 L 286.675 351.563 277.917 339.736 C 273.100 333.232,267.701 326.642,265.919 325.091 L 262.678 322.272 266.426 317.946 C 270.541 313.196,283.566 295.272,283.583 294.336 C 283.589 294.014,282.100 293.753,280.273 293.757 C 277.059 293.763,276.854 293.919,273.828 298.634 C 268.840 306.407,259.690 318.441,257.715 319.824 C 253.317 322.904,253.125 322.385,253.125 307.422 L 253.125 293.750 250.000 293.750 L 246.875 293.750 246.875 322.656 M299.219 322.656 L 299.219 351.563 316.406 351.563 L 333.594 351.563 333.594 349.219 L 333.594 346.875 319.531 346.875 L 305.469 346.875 305.469 335.938 L 305.469 325.000 316.406 325.000 L 327.344 325.000 327.344 322.266 L 327.344 319.531 316.406 319.531 L 305.469 319.531 305.469 308.984 L 305.469 298.438 318.750 298.438 L 332.031 298.438 332.031 296.094 L 332.031 293.750 315.625 293.750 L 299.219 293.750 299.219 322.656 M162.500 298.655 C 169.147 301.977,168.861 324.125,162.131 327.192 C 160.019 328.154,144.883 328.511,142.642 327.651 C 141.003 327.022,140.755 298.830,142.383 298.174 C 144.509 297.316,160.589 297.700,162.500 298.655 M217.320 299.709 C 226.215 304.799,226.949 340.147,218.277 345.829 C 213.301 349.089,200.518 347.960,196.645 343.917 C 189.750 336.720,190.655 303.758,197.854 299.890 C 202.718 297.277,212.904 297.182,217.320 299.709 " stroke="none" fill="#848181" fill-rule="evenodd"></path><path id="path3" d="M257.031 67.487 C 257.031 68.197,260.077 68.499,261.046 67.885 C 261.769 67.427,261.297 67.208,259.570 67.199 C 258.174 67.193,257.031 67.322,257.031 67.487 M173.619 82.813 C 173.619 84.316,173.780 84.932,173.976 84.180 C 174.173 83.428,174.173 82.197,173.976 81.445 C 173.780 80.693,173.619 81.309,173.619 82.813 M115.966 161.914 L 113.672 164.453 116.211 162.159 C 118.578 160.020,119.109 159.375,118.506 159.375 C 118.371 159.375,117.229 160.518,115.966 161.914 M197.852 189.622 C 199.033 189.801,200.967 189.801,202.148 189.622 C 203.330 189.443,202.363 189.297,200.000 189.297 C 197.637 189.297,196.670 189.443,197.852 189.622 M213.463 200.000 C 213.463 201.504,213.623 202.119,213.820 201.367 C 214.016 200.615,214.016 199.385,213.820 198.633 C 213.623 197.881,213.463 198.496,213.463 200.000 M98.619 204.688 C 98.619 206.191,98.780 206.807,98.976 206.055 C 99.173 205.303,99.173 204.072,98.976 203.320 C 98.780 202.568,98.619 203.184,98.619 204.688 M300.963 204.688 C 300.963 206.191,301.123 206.807,301.320 206.055 C 301.516 205.303,301.516 204.072,301.320 203.320 C 301.123 202.568,300.963 203.184,300.963 204.688 M116.406 248.047 C 117.864 249.551,119.232 250.781,119.447 250.781 C 119.662 250.781,118.645 249.551,117.188 248.047 C 115.730 246.543,114.361 245.313,114.147 245.313 C 113.932 245.313,114.949 246.543,116.406 248.047 M282.770 248.242 L 280.078 251.172 283.008 248.480 C 284.619 246.999,285.938 245.680,285.938 245.550 C 285.938 244.953,285.276 245.515,282.770 248.242 M101.381 292.754 C 102.785 292.928,104.895 292.924,106.069 292.746 C 107.243 292.567,106.094 292.425,103.516 292.430 C 100.937 292.434,99.977 292.580,101.381 292.754 M149.414 292.747 C 150.596 292.926,152.529 292.926,153.711 292.747 C 154.893 292.568,153.926 292.422,151.563 292.422 C 149.199 292.422,148.232 292.568,149.414 292.747 M205.256 292.751 C 206.643 292.924,209.104 292.927,210.725 292.758 C 212.346 292.589,211.211 292.447,208.203 292.444 C 205.195 292.440,203.869 292.579,205.256 292.751 M101.367 298.208 C 102.334 298.394,103.916 298.394,104.883 298.208 C 105.850 298.021,105.059 297.869,103.125 297.869 C 101.191 297.869,100.400 298.021,101.367 298.208 M150.219 298.231 C 152.273 298.393,155.437 298.391,157.250 298.227 C 159.063 298.063,157.383 297.931,153.516 297.934 C 149.648 297.936,148.165 298.070,150.219 298.231 M166.663 311.328 C 166.666 314.336,166.807 315.471,166.976 313.850 C 167.146 312.229,167.143 309.768,166.970 308.381 C 166.798 306.994,166.659 308.320,166.663 311.328 M192.422 316.406 C 192.422 318.770,192.568 319.736,192.747 318.555 C 192.926 317.373,192.926 315.439,192.747 314.258 C 192.568 313.076,192.422 314.043,192.422 316.406 M185.406 322.656 C 185.406 325.449,185.548 326.592,185.721 325.195 C 185.895 323.799,185.895 321.514,185.721 320.117 C 185.548 318.721,185.406 319.863,185.406 322.656 M121.275 335.156 C 121.275 336.660,121.436 337.275,121.632 336.523 C 121.829 335.771,121.829 334.541,121.632 333.789 C 121.436 333.037,121.275 333.652,121.275 335.156 M312.656 346.675 C 316.394 346.818,322.722 346.818,326.718 346.676 C 330.715 346.534,327.656 346.417,319.922 346.417 C 312.188 346.416,308.918 346.532,312.656 346.675 " stroke="none" fill="#c1c0c0" fill-rule="evenodd"></path><path id="path4" d="M196.680 20.103 C 198.506 20.268,201.494 20.268,203.320 20.103 C 205.146 19.939,203.652 19.804,200.000 19.804 C 196.348 19.804,194.854 19.939,196.680 20.103 M156.250 37.891 C 154.352 39.824,152.975 41.406,153.190 41.406 C 153.405 41.406,155.134 39.824,157.031 37.891 C 158.929 35.957,160.306 34.375,160.091 34.375 C 159.876 34.375,158.148 35.957,156.250 37.891 M242.936 37.695 C 246.174 41.145,246.875 41.765,246.875 41.178 C 246.875 41.053,245.205 39.383,243.164 37.467 L 239.453 33.984 242.936 37.695 M90.966 85.352 L 88.672 87.891 91.211 85.596 C 92.607 84.334,93.750 83.191,93.750 83.057 C 93.750 82.453,93.105 82.985,90.966 85.352 M306.250 83.057 C 306.250 83.191,307.393 84.334,308.789 85.596 L 311.328 87.891 309.034 85.352 C 306.895 82.985,306.250 82.453,306.250 83.057 M288.478 123.828 C 288.487 125.547,288.647 126.158,288.834 125.186 C 289.021 124.214,289.014 122.808,288.818 122.061 C 288.622 121.314,288.470 122.109,288.478 123.828 M73.705 128.516 C 73.708 131.953,73.846 133.262,74.011 131.425 C 74.176 129.587,74.173 126.775,74.005 125.175 C 73.838 123.575,73.702 125.078,73.705 128.516 M326.049 128.516 C 326.052 131.953,326.189 133.262,326.354 131.425 C 326.519 129.587,326.517 126.775,326.349 125.175 C 326.181 123.575,326.046 125.078,326.049 128.516 M156.236 147.889 L 156.612 151.953 156.872 148.527 C 157.015 146.642,156.845 144.813,156.495 144.463 C 156.146 144.112,156.029 145.654,156.236 147.889 M243.283 144.840 C 243.053 145.439,242.985 147.285,243.131 148.941 C 243.379 151.732,243.426 151.652,243.769 147.851 C 244.148 143.664,244.026 142.904,243.283 144.840 M98.619 200.000 C 98.619 201.504,98.780 202.119,98.976 201.367 C 99.173 200.615,99.173 199.385,98.976 198.633 C 98.780 197.881,98.619 198.496,98.619 200.000 M267.369 200.000 C 267.369 201.504,267.530 202.119,267.726 201.367 C 267.923 200.615,267.923 199.385,267.726 198.633 C 267.530 197.881,267.369 198.496,267.369 200.000 M300.963 200.000 C 300.963 201.504,301.123 202.119,301.320 201.367 C 301.516 200.615,301.516 199.385,301.320 198.633 C 301.123 197.881,300.963 198.496,300.963 200.000 M98.619 209.375 C 98.619 210.879,98.780 211.494,98.976 210.742 C 99.173 209.990,99.173 208.760,98.976 208.008 C 98.780 207.256,98.619 207.871,98.619 209.375 M300.963 209.375 C 300.963 210.879,301.123 211.494,301.320 210.742 C 301.516 209.990,301.516 208.760,301.320 208.008 C 301.123 207.256,300.963 207.871,300.963 209.375 M156.836 266.190 C 158.232 266.363,160.518 266.363,161.914 266.190 C 163.311 266.017,162.168 265.875,159.375 265.875 C 156.582 265.875,155.439 266.017,156.836 266.190 M237.287 266.189 C 238.674 266.361,241.135 266.364,242.756 266.195 C 244.377 266.026,243.242 265.885,240.234 265.881 C 237.227 265.878,235.900 266.016,237.287 266.189 M246.449 322.656 C 246.449 339.199,246.552 345.967,246.679 337.695 C 246.805 329.424,246.805 315.889,246.679 307.617 C 246.552 299.346,246.449 306.113,246.449 322.656 M134.729 323.047 C 134.729 339.375,134.833 346.166,134.960 338.137 C 135.087 330.109,135.087 316.750,134.960 308.450 C 134.833 300.150,134.730 306.719,134.729 323.047 M141.732 312.891 C 141.733 321.055,141.848 324.288,141.989 320.077 C 142.130 315.865,142.129 309.185,141.988 305.233 C 141.846 301.281,141.731 304.727,141.732 312.891 M305.823 309.179 L 305.859 319.141 316.603 319.175 L 327.346 319.209 316.821 318.958 L 306.296 318.706 306.041 308.961 L 305.786 299.216 305.823 309.179 M192.422 324.219 C 192.422 326.582,192.568 327.549,192.747 326.367 C 192.926 325.186,192.926 323.252,192.747 322.070 C 192.568 320.889,192.422 321.855,192.422 324.219 M305.777 335.547 C 305.778 341.563,305.901 343.920,306.050 340.786 C 306.198 337.652,306.197 332.730,306.047 329.849 C 305.897 326.967,305.776 329.531,305.777 335.547 M185.338 329.688 C 185.338 331.191,185.498 331.807,185.695 331.055 C 185.891 330.303,185.891 329.072,185.695 328.320 C 185.498 327.568,185.338 328.184,185.338 329.688 M114.286 335.547 C 114.292 337.695,114.444 338.481,114.623 337.294 C 114.803 336.106,114.798 334.349,114.612 333.388 C 114.427 332.427,114.280 333.398,114.286 335.547 M141.710 342.578 C 141.711 348.164,141.836 350.347,141.986 347.428 C 142.137 344.510,142.136 339.940,141.984 337.272 C 141.832 334.605,141.708 336.992,141.710 342.578 M151.758 334.153 C 152.939 334.332,154.873 334.332,156.055 334.153 C 157.236 333.974,156.270 333.828,153.906 333.828 C 151.543 333.828,150.576 333.974,151.758 334.153 M101.376 347.428 C 102.348 347.614,103.754 347.607,104.501 347.412 C 105.248 347.216,104.453 347.063,102.734 347.072 C 101.016 347.081,100.404 347.241,101.376 347.428 M206.836 347.426 C 207.803 347.613,209.385 347.613,210.352 347.426 C 211.318 347.240,210.527 347.088,208.594 347.088 C 206.660 347.088,205.869 347.240,206.836 347.426 M114.244 376.563 C 114.244 378.066,114.405 378.682,114.601 377.930 C 114.798 377.178,114.798 375.947,114.601 375.195 C 114.405 374.443,114.244 375.059,114.244 376.563 M286.119 376.563 C 286.119 378.066,286.280 378.682,286.476 377.930 C 286.673 377.178,286.673 375.947,286.476 375.195 C 286.280 374.443,286.119 375.059,286.119 376.563 M46.868 381.481 L 47.251 387.891 47.490 382.107 C 47.622 378.926,47.449 376.041,47.107 375.697 C 46.765 375.352,46.657 377.955,46.868 381.481 M218.743 381.481 L 219.126 387.891 219.365 382.107 C 219.497 378.926,219.324 376.041,218.982 375.697 C 218.640 375.352,218.532 377.955,218.743 381.481 M390.618 381.481 L 391.001 387.891 391.240 382.107 C 391.372 378.926,391.199 376.041,390.857 375.697 C 390.515 375.352,390.407 377.955,390.618 381.481 M129.023 384.134 C 128.959 387.653,129.170 390.697,129.492 390.897 C 129.814 391.098,129.980 389.097,129.860 386.451 C 129.492 378.363,129.146 377.405,129.023 384.134 M300.898 384.134 C 300.834 387.653,301.045 390.697,301.367 390.897 C 301.689 391.098,301.855 389.097,301.735 386.451 C 301.367 378.363,301.021 377.405,300.898 384.134 M15.947 381.538 C 15.721 382.127,15.650 384.500,15.789 386.812 L 16.042 391.016 16.419 385.741 C 16.799 380.431,16.702 379.569,15.947 381.538 M29.103 383.203 C 29.112 384.922,29.272 385.533,29.459 384.561 C 29.646 383.589,29.639 382.183,29.443 381.436 C 29.247 380.689,29.095 381.484,29.103 383.203 M187.822 381.538 C 187.596 382.127,187.525 384.500,187.664 386.812 L 187.917 391.016 188.294 385.741 C 188.674 380.431,188.577 379.569,187.822 381.538 M200.978 383.203 C 200.987 384.922,201.147 385.533,201.334 384.561 C 201.521 383.589,201.514 382.183,201.318 381.436 C 201.122 380.689,200.970 381.484,200.978 383.203 M359.697 381.538 C 359.471 382.127,359.400 384.500,359.539 386.812 L 359.792 391.016 360.169 385.741 C 360.549 380.431,360.452 379.569,359.697 381.538 M372.853 383.203 C 372.862 384.922,373.022 385.533,373.209 384.561 C 373.396 383.589,373.389 382.183,373.193 381.436 C 372.997 380.689,372.845 381.484,372.853 383.203 M125.781 386.263 C 125.781 387.731,125.360 389.073,124.844 389.245 C 124.258 389.440,124.404 389.748,125.235 390.066 C 126.362 390.499,126.563 390.049,126.563 387.085 C 126.563 385.165,126.387 383.594,126.172 383.594 C 125.957 383.594,125.781 384.795,125.781 386.263 M297.656 386.263 C 297.656 387.731,297.235 389.073,296.719 389.245 C 296.133 389.440,296.279 389.748,297.110 390.066 C 298.237 390.499,298.438 390.049,298.438 387.085 C 298.438 385.165,298.262 383.594,298.047 383.594 C 297.832 383.594,297.656 384.795,297.656 386.263 " stroke="none" fill="#e0dfdf" fill-rule="evenodd"></path></g></svg>