<?xml version="1.0" encoding="UTF-8" standalone="no"?>
<!DOCTYPE svg PUBLIC "-//W3C//DTD SVG 1.1//EN" "http://www.w3.org/Graphics/SVG/1.1/DTD/svg11.dtd">
<svg version="1.1" xmlns="http://www.w3.org/2000/svg" xmlns:xlink="http://www.w3.org/1999/xlink" preserveAspectRatio="xMidYMid meet" viewBox="0 0 640 640" width="640" height="640"><defs><path d="M0 0L48 0L48 48L0 48L0 0Z" id="d5fXcIO0ZQ"></path><path d="M38.48 6.03L38.72 6.06L38.95 6.11L39.17 6.18L39.39 6.25L39.61 6.34L39.81 6.44L40.01 6.55L40.21 6.67L40.4 6.8L40.57 6.94L40.74 7.1L40.9 7.26L41.06 7.43L41.2 7.6L41.33 7.79L41.45 7.99L41.56 8.19L41.66 8.39L41.75 8.61L41.82 8.83L41.89 9.05L41.94 9.28L41.97 9.52L41.99 9.76L42 10L42 38L41.99 38.24L41.97 38.48L41.94 38.72L41.89 38.95L41.82 39.17L41.75 39.39L41.66 39.61L41.56 39.81L41.45 40.01L41.33 40.21L41.2 40.4L41.06 40.57L40.9 40.74L40.74 40.9L40.57 41.06L40.4 41.2L40.21 41.33L40.01 41.45L39.81 41.56L39.61 41.66L39.39 41.75L39.17 41.82L38.95 41.89L38.72 41.94L38.48 41.97L38.24 41.99L38 42L10 42L9.76 41.99L9.52 41.97L9.28 41.94L9.05 41.89L8.83 41.82L8.61 41.75L8.39 41.66L8.19 41.56L7.99 41.45L7.79 41.33L7.6 41.2L7.43 41.06L7.26 40.9L7.1 40.74L6.94 40.57L6.8 40.4L6.67 40.21L6.55 40.01L6.44 39.81L6.34 39.61L6.25 39.39L6.18 39.17L6.11 38.95L6.06 38.72L6.03 38.48L6.01 38.24L6 38L6.02 10L6.03 9.76L6.05 9.52L6.08 9.28L6.13 9.05L6.19 8.83L6.27 8.61L6.36 8.39L6.45 8.19L6.56 7.99L6.68 7.79L6.81 7.6L6.96 7.43L7.11 7.26L7.27 7.1L7.43 6.94L7.61 6.8L7.8 6.67L7.99 6.55L8.19 6.44L8.4 6.34L8.61 6.25L8.83 6.18L9.05 6.11L9.28 6.06L9.52 6.03L9.76 6.01L10 6L38 6L38.24 6.01L38.48 6.03ZM20 20L12 20L12 28L20 28L20 36L28 36L28 28L36 28L36 20L28 20L28 12L20 12L20 20Z" id="d9rmuxNtBL"></path></defs><g><g><g><use xlink:href="#d5fXcIO0ZQ" opacity="1" fill="#000000" fill-opacity="0"></use><g><use xlink:href="#d5fXcIO0ZQ" opacity="1" fill-opacity="0" stroke="#000000" stroke-width="1" stroke-opacity="0"></use></g></g><g><use xlink:href="#d9rmuxNtBL" opacity="1" fill="#b80d0d" fill-opacity="1"></use><g><use xlink:href="#d9rmuxNtBL" opacity="1" fill-opacity="0" stroke="#000000" stroke-width="1" stroke-opacity="0"></use></g></g></g></g></svg>