<?xml version="1.0" encoding="UTF-8" standalone="no"?>
<!DOCTYPE svg PUBLIC "-//W3C//DTD SVG 1.1//EN" "http://www.w3.org/Graphics/SVG/1.1/DTD/svg11.dtd">
<svg version="1.1" xmlns="http://www.w3.org/2000/svg" xmlns:xlink="http://www.w3.org/1999/xlink" preserveAspectRatio="xMidYMid meet" viewBox="0 0 640 640" width="640" height="640"><defs><path d="M0.45 13.82C0.4 14.07 0.37 15.7 0.37 18.99C0.37 19.31 0.37 20.91 0.37 23.8L1.46 23.8L2.55 23.8L2.55 29.63L2.55 35.47L19.68 35.47L36.8 35.47L36.79 33.15L36.76 30.83L22.86 30.81L8.95 30.8L8.95 27.3L8.95 23.8L10 23.8L11.06 23.8C11.06 20.86 11.06 19.23 11.06 18.9C11.06 14.63 11.04 13.96 10.93 13.63C10.78 13.16 10.42 12.66 10.08 12.43C9.52 12.06 9.45 12.05 5.72 12.06C3.83 12.06 2.19 12.09 2.08 12.11C1.27 12.33 0.66 12.98 0.45 13.82Z" id="aqCLT8LiL"></path><path d="M22.6 7.25C22.44 7.68 22.45 8.2 22.65 8.47C22.78 8.64 22.92 8.69 23.26 8.69C23.56 8.69 23.74 8.75 23.82 8.87C23.91 9.02 23.73 9.3 22.48 10.92C19.65 14.59 19.35 15.03 19.35 15.4C19.35 15.62 19.42 15.84 19.56 16.02C19.74 16.25 19.88 16.3 20.57 16.34C21.26 16.39 21.37 16.43 21.37 16.59C21.37 16.69 20.24 18.36 18.85 20.28C17.46 22.21 16.26 23.97 16.17 24.18C15.99 24.64 16.07 24.98 16.43 25.31C16.64 25.49 16.97 25.51 20.31 25.57C23.94 25.62 23.97 25.62 24.15 25.87C24.33 26.11 24.33 26.18 24.31 28.32C24.3 29.74 24.33 30.67 24.39 30.92C24.55 31.57 24.74 31.64 26.56 31.64C28.22 31.64 28.63 31.56 28.77 31.19C28.82 31.07 28.85 29.97 28.85 28.71C28.85 26.24 28.92 25.73 29.28 25.62C29.39 25.59 31.09 25.55 33.06 25.53C36.37 25.51 36.68 25.5 36.88 25.31C37.14 25.06 37.23 24.68 37.11 24.26C37.06 24.09 35.86 22.33 34.43 20.34C32.54 17.7 31.83 16.66 31.87 16.52C31.93 16.31 31.94 16.31 32.74 16.34C33.31 16.37 33.39 16.34 33.63 16.06C33.82 15.85 33.89 15.67 33.89 15.42C33.89 15.02 33.39 14.3 30.9 11.08C29.83 9.72 29.3 8.94 29.35 8.87C29.4 8.81 29.68 8.73 29.98 8.68C30.62 8.59 30.75 8.44 30.75 7.75C30.75 7.31 30.7 7.22 28.83 4.68C26.83 1.96 26.75 1.88 26.33 2.18C26.07 2.37 22.73 6.92 22.6 7.25Z" id="d21YRP4gNN"></path><path d="M8.16 8.71C8.16 10.11 7.03 11.25 5.63 11.25C4.22 11.25 3.09 10.11 3.09 8.71C3.09 7.31 4.22 6.17 5.63 6.17C7.03 6.17 8.16 7.31 8.16 8.71Z" id="a4zvYp5Q7l"></path></defs><g><g><g><use xlink:href="#aqCLT8LiL" opacity="1" fill="#273f02" fill-opacity="1"></use><g><use xlink:href="#aqCLT8LiL" opacity="1" fill-opacity="0" stroke="#000000" stroke-width="1" stroke-opacity="0"></use></g></g><g><use xlink:href="#d21YRP4gNN" opacity="1" fill="#273f02" fill-opacity="1"></use><g><use xlink:href="#d21YRP4gNN" opacity="1" fill-opacity="0" stroke="#000000" stroke-width="1" stroke-opacity="0"></use></g></g><g><use xlink:href="#a4zvYp5Q7l" opacity="1" fill="#273f02" fill-opacity="1"></use></g></g></g></svg>