<?xml version="1.0" encoding="UTF-8" standalone="no"?>
<!DOCTYPE svg PUBLIC "-//W3C//DTD SVG 1.1//EN" "http://www.w3.org/Graphics/SVG/1.1/DTD/svg11.dtd">
<svg version="1.1" xmlns="http://www.w3.org/2000/svg" xmlns:xlink="http://www.w3.org/1999/xlink" preserveAspectRatio="xMidYMid meet" viewBox="0 0 640 640" width="640" height="640"><defs><path d="M31.32 8.68C34.2 11.58 36 15.58 36 20C36 28.84 28.84 36 20 36C11.16 36 4 28.84 4 20C4 11.84 10.1 5.12 18 4.14C18 4.54 18 7.78 18 8.18C12.32 9.14 8 14.06 8 20C8 26.62 13.38 32 20 32C26.62 32 32 26.62 32 20C32 16.68 30.66 13.68 28.48 11.52C28.2 11.8 25.94 14.06 25.66 14.34C27.1 15.8 28 17.8 28 20C28 24.42 24.42 28 20 28C15.58 28 12 24.42 12 20C12 16.28 14.56 13.18 18 12.28C18 12.71 18 16.13 18 16.56C16.8 17.26 16 18.52 16 20C16 22.2 17.8 24 20 24C22.2 24 24 22.2 24 20C24 18.52 23.2 17.24 22 16.56C22 15.46 22 9.94 22 0C20.8 0 20.13 0 20 0C8.96 0 0 8.96 0 20C0 31.04 8.96 40 20 40C31.04 40 40 31.04 40 20C40 14.48 37.76 9.48 34.14 5.86C33.58 6.42 31.6 8.4 31.32 8.68Z" id="b1iMIVEuc6"></path></defs><g><g><g><use xlink:href="#b1iMIVEuc6" opacity="1" fill="#3f4630" fill-opacity="1"></use><g><use xlink:href="#b1iMIVEuc6" opacity="1" fill-opacity="0" stroke="#000000" stroke-width="1" stroke-opacity="0"></use></g></g></g></g></svg>