<?xml version="1.0" encoding="UTF-8"?>
<svg width="100pt" height="100pt" version="1.1" viewBox="0 0 100 100" xmlns="http://www.w3.org/2000/svg">
 <path d="m58.16 18.551v10.469l-5.1602-5.1602h-31.828l-13.84 13.84 9.5898 9.5898 3.8594-3.8516v31.148h32.609v-31.145l3.8594 3.8516 0.91016-0.91016v35.07h13.371l2.7109-33.77 2.7188 33.77h13.359v-62.898zm-0.91016 26.848l-5.1992-5.1992v33.051h-29.93v-33.051l-5.1992 5.1992-7.6992-7.6992 12.5-12.5h8.0195c2.4492-0.011719 4.8984-0.011719 7.3516-0.011719 2.4492 0 4.8984 0 7.3398 0.011719h8.0195l12.5 12.5-6.7891 6.7891zm31.641 34.621h-10.621l-3.3203-41.309c-0.21875-2.9297-0.44922-5.8594-0.67188-8.7891-0.25 2.9297-0.5 5.8594-0.75 8.7891l-3.3203 41.309h-10.621v-35.07l7.2383-7.25-7.2383-7.25v-10.469h29.301z"/>
</svg>
