<?xml version="1.0" encoding="utf-8"?>
<!-- Generator: Adobe Illustrator 21.0.2, SVG Export Plug-In . SVG Version: 6.00 Build 0)  -->
<svg version="1.1" id="Layer_1" xmlns="http://www.w3.org/2000/svg" xmlns:xlink="http://www.w3.org/1999/xlink" x="0px" y="0px"
	 viewBox="0 0 100 100" style="enable-background:new 0 0 100 100;" xml:space="preserve">
<style type="text/css">
	.st0{fill:#FFFFFF;}
</style>
<path class="st0" d="M58.2,18.6V29L53,23.9H21.2L7.3,37.7l9.6,9.6l3.9-3.9v31.1h32.6V43.4l3.9,3.9l0.9-0.9v35.1h13.4l2.7-33.8
	L77,81.5h13.4V18.6L58.2,18.6z M57.2,45.4l-5.2-5.2v33.1H22.1V40.2l-5.2,5.2l-7.7-7.7l12.5-12.5h8c2.4,0,4.9,0,7.4,0
	c2.4,0,4.9,0,7.3,0h8L65,37.7l-6.8,6.8L57.2,45.4z M88.9,80H78.3l-3.3-41.3c-0.2-2.9-0.4-5.9-0.7-8.8c-0.2,2.9-0.5,5.9-0.8,8.8
	L70.2,80H59.6V45l7.2-7.2l-7.2-7.2V20h29.3L88.9,80z"/>
</svg>
