<?xml version="1.0" encoding="UTF-8"?>
<svg width="100pt" height="100pt" version="1.1" viewBox="0 0 100 100" xmlns="http://www.w3.org/2000/svg">
 <g>
  <path d="m50 0c-27.57 0-50 22.43-50 50s22.43 50 50 50 50-22.43 50-50-22.43-50-50-50zm0 95.238c-24.945 0-45.238-20.293-45.238-45.238s20.293-45.238 45.238-45.238 45.238 20.293 45.238 45.238-20.293 45.238-45.238 45.238z"/>
  <path d="m80.852 57.188c-0.035156-0.15625-0.050781-0.32422-0.11719-0.46875-0.007813-0.015625-0.003906-0.03125-0.011719-0.050781-0.050781-0.10547-0.14062-0.17578-0.20312-0.27344-0.10156-0.14844-0.1875-0.30078-0.32031-0.42578-0.10938-0.10547-0.24609-0.17188-0.375-0.25391-0.12891-0.082032-0.25-0.17578-0.39453-0.23047-0.16406-0.0625-0.33984-0.078125-0.51172-0.10156-0.11719-0.019531-0.22266-0.070312-0.34766-0.070312-0.019531 0-0.03125 0.007812-0.050781 0.007812-0.14844 0.003907-0.29688 0.058594-0.44531 0.089844-0.16406 0.035156-0.33203 0.054688-0.48047 0.12109-0.015625 0.007812-0.03125 0.003906-0.050781 0.011719l-10.637 5.0742c-7.9102-6.0938-17.641-8.9805-27.637-8.0781-10.52 0.94922-20.039 5.9453-26.812 14.066-0.058593 0.070312-0.078125 0.15625-0.125 0.23047-0.089843 0.13672-0.16406 0.26562-0.22266 0.41406-0.058594 0.14453-0.097656 0.28516-0.12891 0.43359-0.027344 0.15234-0.046875 0.29297-0.046875 0.44531s0.019531 0.29688 0.046875 0.44531c0.027343 0.14844 0.070312 0.28906 0.12891 0.43359 0.058594 0.14453 0.13281 0.27734 0.22266 0.41406 0.050781 0.074219 0.066407 0.16406 0.125 0.23047 6.7734 8.1211 16.297 13.113 26.812 14.066 1.2148 0.10938 2.4219 0.16406 3.625 0.16406 8.6875 0 17.031-2.8672 23.973-8.1992l10.598 5.543c0.035156 0.019532 0.078125 0.027344 0.11719 0.046876 0.054688 0.023437 0.10547 0.039062 0.16406 0.058593 0.26953 0.10156 0.54688 0.16797 0.82422 0.16797h0.003907 0.003906c0.28125-0.003906 0.55078-0.070312 0.8125-0.16406 0.070313-0.023438 0.13672-0.054688 0.20703-0.089844 0.21484-0.10156 0.41016-0.23047 0.58984-0.39844 0.023438-0.023437 0.054688-0.039062 0.078125-0.0625 0.16016-0.16406 0.30078-0.34766 0.41406-0.5625 0.015624-0.027344 0.011718-0.0625 0.023437-0.089844 0.070313-0.14453 0.097656-0.30469 0.13672-0.46484 0.035156-0.15234 0.085937-0.30078 0.09375-0.45312 0-0.03125 0.019531-0.058594 0.019531-0.09375v-21.426c0-0.019531-0.007813-0.03125-0.007813-0.050781-0.007812-0.15234-0.058593-0.30078-0.09375-0.45703zm-63.332 10.949c3.4141-3.6406 7.4844-6.4805 12.004-8.3477 4.1367 4.7617 4.043 11.918-0.32813 16.539-4.3867-1.8633-8.3438-4.6406-11.676-8.1914zm22.18 10.848c-1.9375-0.17578-3.8242-0.53906-5.668-1.0195 4.2812-5.8398 4.4023-13.789 0.34375-19.738 1.7383-0.43359 3.5078-0.77344 5.3242-0.9375 9.2578-0.83594 18.277 1.9844 25.418 7.9414 0.078124 0.066406 0.17578 0.089843 0.26172 0.14062 0.039063 0.027344 0.082032 0.046875 0.12109 0.066406 0.35938 0.19922 0.74219 0.3125 1.1406 0.3125 0.011719 0 0.019531 0.003906 0.027344 0.003906h0.003906c0.39062-0.003906 0.76953-0.089844 1.1172-0.27734l8.4023-4.0078v13.723l-8.3906-4.3906c-0.83594-0.46484-1.8984-0.41016-2.6797 0.23828-7.1445 5.9609-16.172 8.7891-25.422 7.9453z"/>
  <path d="m28.57 66.668c0 3.1719-4.7617 3.1719-4.7617 0 0-3.1758 4.7617-3.1758 4.7617 0"/>
  <path d="m44.539 60.223c-0.92969-0.92969-2.4375-0.92969-3.3672 0-0.92969 0.92969-0.92969 2.4375 0 3.3672l9.5234 9.5234c0.46484 0.46484 1.0742 0.69531 1.6836 0.69531s1.2188-0.23047 1.6836-0.69531c0.92969-0.92969 0.92969-2.4375 0-3.3672z"/>
  <path d="m54.062 60.223c-0.92969-0.92969-2.4375-0.92969-3.3672 0-0.92969 0.92969-0.92969 2.4375 0 3.3672l7.1445 7.1445c0.46484 0.46484 1.0742 0.69531 1.6836 0.69531 0.60937 0 1.2188-0.23047 1.6836-0.69531 0.92969-0.92969 0.92969-2.4375 0-3.3672z"/>
  <path d="m42.16 67.363c-0.92969-0.92969-2.4375-0.92969-3.3672 0-0.92969 0.92969-0.92969 2.4375 0 3.3672l4.7617 4.7617c0.46484 0.46484 1.0742 0.69531 1.6836 0.69531s1.2188-0.23047 1.6836-0.69531c0.92969-0.92969 0.92969-2.4375 0-3.3672z"/>
  <path d="m71.43 28.57c-6.5625 0-11.906 5.3398-11.906 11.906 0 6.5625 5.3398 11.906 11.906 11.906 6.5625 0 11.902-5.3398 11.902-11.906 0-6.5664-5.3398-11.906-11.902-11.906zm0 19.047c-3.9375 0-7.1445-3.2031-7.1445-7.1445 0-3.9375 3.2031-7.1445 7.1445-7.1445 3.9375 0 7.1445 3.2031 7.1445 7.1445-0.003907 3.9414-3.207 7.1445-7.1445 7.1445z"/>
  <path d="m19.383 47.285c0.88672 2.9375 3.5859 5.0977 6.8086 5.0977 3.1016 0 5.7188-1.9961 6.7031-4.7617h7.582c1.3164 0 2.3828-1.0664 2.3828-2.3828v-9.5234c0-1.3164-1.0664-2.3828-2.3828-2.3828h-7.582c-0.98828-2.7656-3.6055-4.7617-6.7031-4.7617-3.2227 0-5.9219 2.1602-6.8086 5.0977-2.9375 0.88672-5.0977 3.5859-5.0977 6.8086 0 3.2227 2.1602 5.9219 5.0977 6.8086zm13.949-9.1914h4.7617v4.7617h-4.7617zm-11.902 0c1.3164 0 2.3828-1.0664 2.3828-2.3828 0-1.3125 1.0664-2.3828 2.3828-2.3828 1.3125 0 2.3828 1.0664 2.3828 2.3828v9.5234c0 1.3125-1.0664 2.3828-2.3828 2.3828-1.3125 0-2.3828-1.0664-2.3828-2.3828s-1.0664-2.3828-2.3828-2.3828c-1.3125 0-2.3828-1.0664-2.3828-2.3828 0-1.3047 1.0703-2.375 2.3828-2.375z"/>
  <path d="m38.094 28.57h7.582c0.98438 2.7656 3.6055 4.7617 6.7031 4.7617 3.2227 0 5.9219-2.1602 6.8086-5.0977 2.9375-0.88672 5.0977-3.5859 5.0977-6.8086 0-3.2227-2.1562-5.9219-5.0977-6.8086-0.88672-2.9375-3.5859-5.0977-6.8086-5.0977-3.0977 0-5.7188 1.9961-6.7031 4.7617h-7.582c-1.3164 0-2.3828 1.0664-2.3828 2.3828v9.5234c0.003906 1.3164 1.0703 2.3828 2.3828 2.3828zm7.1445-4.7617h-4.7617v-4.7617h4.7617zm7.1445-9.5234c1.3125 0 2.3828 1.0664 2.3828 2.3828 0 1.3164 1.0664 2.3828 2.3828 2.3828 1.3125 0 2.3828 1.0664 2.3828 2.3828 0 1.3125-1.0664 2.3828-2.3828 2.3828-1.3164 0-2.3828 1.0664-2.3828 2.3828 0 1.3125-1.0664 2.3828-2.3828 2.3828-1.3125 0-2.3828-1.0664-2.3828-2.3828v-9.5234c0-1.3203 1.0664-2.3906 2.3828-2.3906z"/>
  <path d="m76.191 40.477c0 3.1758-4.7617 3.1758-4.7617 0 0-3.1758 4.7617-3.1758 4.7617 0"/>
  <path d="m70.73 36.41c-0.92969-0.92969-2.4375-0.92969-3.3672 0-0.92969 0.92969-0.92969 2.4375 0 3.3672 0.46484 0.46484 1.0742 0.69531 1.6836 0.69531s1.2188-0.23047 1.6836-0.69531c0.92969-0.92969 0.92969-2.4336 0-3.3672z"/>
  <path d="m69.047 40.477c-0.60938 0-1.2188 0.23047-1.6836 0.69922-0.92969 0.92969-0.92969 2.4375 0 3.3672 0.92969 0.92969 2.4375 0.92969 3.3672 0 0.92969-0.92969 0.92969-2.4375 0-3.3672-0.46484-0.46875-1.0742-0.69922-1.6836-0.69922z"/>
 </g>
</svg>
