<?xml version="1.0" encoding="utf-8"?>
<!-- Generator: Adobe Illustrator 21.0.2, SVG Export Plug-In . SVG Version: 6.00 Build 0)  -->
<svg version="1.1" id="Layer_1" xmlns="http://www.w3.org/2000/svg" xmlns:xlink="http://www.w3.org/1999/xlink" x="0px" y="0px"
	 viewBox="0 0 100 100" style="enable-background:new 0 0 100 100;" xml:space="preserve">
<style type="text/css">
	.st0{fill:#FFFFFF;}
</style>
<g>
	<path class="st0" d="M50,0C22.4,0,0,22.4,0,50s22.4,50,50,50s50-22.4,50-50S77.6,0,50,0z M50,95.2C25.1,95.2,4.8,74.9,4.8,50
		S25.1,4.8,50,4.8S95.2,25.1,95.2,50S74.9,95.2,50,95.2z"/>
	<path class="st0" d="M80.9,57.2c0-0.2-0.1-0.3-0.1-0.5c0,0,0,0,0-0.1c-0.1-0.1-0.1-0.2-0.2-0.3c-0.1-0.1-0.2-0.3-0.3-0.4
		c-0.1-0.1-0.2-0.2-0.4-0.3s-0.2-0.2-0.4-0.2c-0.2-0.1-0.3-0.1-0.5-0.1c-0.1,0-0.2-0.1-0.3-0.1c0,0,0,0-0.1,0
		c-0.1,0-0.3,0.1-0.4,0.1c-0.2,0-0.3,0.1-0.5,0.1c0,0,0,0-0.1,0l-10.6,5.1c-7.9-6.1-17.6-9-27.6-8.1c-10.5,0.9-20,5.9-26.8,14.1
		c-0.1,0.1-0.1,0.2-0.1,0.2c-0.1,0.1-0.2,0.3-0.2,0.4c-0.1,0.1-0.1,0.3-0.1,0.4c0,0.2,0,0.3,0,0.4s0,0.3,0,0.4
		c0,0.1,0.1,0.3,0.1,0.4c0.1,0.1,0.1,0.3,0.2,0.4c0.1,0.1,0.1,0.2,0.1,0.2c6.8,8.1,16.3,13.1,26.8,14.1c1.2,0.1,2.4,0.2,3.6,0.2
		c8.7,0,17-2.9,24-8.2l10.6,5.5c0,0,0.1,0,0.1,0c0.1,0,0.1,0,0.2,0.1c0.3,0.1,0.5,0.2,0.8,0.2h0h0c0.3,0,0.6-0.1,0.8-0.2
		c0.1,0,0.1-0.1,0.2-0.1c0.2-0.1,0.4-0.2,0.6-0.4c0,0,0.1,0,0.1-0.1c0.2-0.2,0.3-0.3,0.4-0.6c0,0,0-0.1,0-0.1
		c0.1-0.1,0.1-0.3,0.1-0.5c0-0.2,0.1-0.3,0.1-0.5c0,0,0-0.1,0-0.1V57.7c0,0,0,0,0-0.1C80.9,57.5,80.9,57.3,80.9,57.2L80.9,57.2z
		 M17.5,68.1c3.4-3.6,7.5-6.5,12-8.3c4.1,4.8,4,11.9-0.3,16.5C24.8,74.5,20.9,71.7,17.5,68.1L17.5,68.1z M39.7,79
		c-1.9-0.2-3.8-0.5-5.7-1c4.3-5.8,4.4-13.8,0.3-19.7c1.7-0.4,3.5-0.8,5.3-0.9c9.3-0.8,18.3,2,25.4,7.9c0.1,0.1,0.2,0.1,0.3,0.1
		c0,0,0.1,0,0.1,0.1c0.4,0.2,0.7,0.3,1.1,0.3c0,0,0,0,0,0h0c0.4,0,0.8-0.1,1.1-0.3l8.4-4v13.7l-8.4-4.4c-0.8-0.5-1.9-0.4-2.7,0.2
		C58,77,48.9,79.8,39.7,79L39.7,79z"/>
	<path class="st0" d="M28.6,66.7c0,3.2-4.8,3.2-4.8,0C23.8,63.5,28.6,63.5,28.6,66.7"/>
	<path class="st0" d="M44.5,60.2c-0.9-0.9-2.4-0.9-3.4,0c-0.9,0.9-0.9,2.4,0,3.4l9.5,9.5c0.5,0.5,1.1,0.7,1.7,0.7s1.2-0.2,1.7-0.7
		c0.9-0.9,0.9-2.4,0-3.4L44.5,60.2z"/>
	<path class="st0" d="M54.1,60.2c-0.9-0.9-2.4-0.9-3.4,0c-0.9,0.9-0.9,2.4,0,3.4l7.1,7.1c0.5,0.5,1.1,0.7,1.7,0.7
		c0.6,0,1.2-0.2,1.7-0.7c0.9-0.9,0.9-2.4,0-3.4L54.1,60.2z"/>
	<path class="st0" d="M42.2,67.4c-0.9-0.9-2.4-0.9-3.4,0c-0.9,0.9-0.9,2.4,0,3.4l4.8,4.8c0.5,0.5,1.1,0.7,1.7,0.7s1.2-0.2,1.7-0.7
		c0.9-0.9,0.9-2.4,0-3.4L42.2,67.4z"/>
	<path class="st0" d="M71.4,28.6c-6.6,0-11.9,5.3-11.9,11.9c0,6.6,5.3,11.9,11.9,11.9c6.6,0,11.9-5.3,11.9-11.9
		C83.3,33.9,78,28.6,71.4,28.6z M71.4,47.6c-3.9,0-7.1-3.2-7.1-7.1c0-3.9,3.2-7.1,7.1-7.1c3.9,0,7.1,3.2,7.1,7.1
		C78.6,44.4,75.4,47.6,71.4,47.6z"/>
	<path class="st0" d="M19.4,47.3c0.9,2.9,3.6,5.1,6.8,5.1c3.1,0,5.7-2,6.7-4.8h7.6c1.3,0,2.4-1.1,2.4-2.4v-9.5
		c0-1.3-1.1-2.4-2.4-2.4h-7.6c-1-2.8-3.6-4.8-6.7-4.8c-3.2,0-5.9,2.2-6.8,5.1c-2.9,0.9-5.1,3.6-5.1,6.8S16.4,46.4,19.4,47.3
		L19.4,47.3z M33.3,38.1h4.8v4.8h-4.8V38.1z M21.4,38.1c1.3,0,2.4-1.1,2.4-2.4c0-1.3,1.1-2.4,2.4-2.4c1.3,0,2.4,1.1,2.4,2.4v9.5
		c0,1.3-1.1,2.4-2.4,2.4c-1.3,0-2.4-1.1-2.4-2.4s-1.1-2.4-2.4-2.4c-1.3,0-2.4-1.1-2.4-2.4C19,39.2,20.1,38.1,21.4,38.1z"/>
	<path class="st0" d="M38.1,28.6h7.6c1,2.8,3.6,4.8,6.7,4.8c3.2,0,5.9-2.2,6.8-5.1c2.9-0.9,5.1-3.6,5.1-6.8s-2.2-5.9-5.1-6.8
		c-0.9-2.9-3.6-5.1-6.8-5.1c-3.1,0-5.7,2-6.7,4.8h-7.6c-1.3,0-2.4,1.1-2.4,2.4v9.5C35.7,27.5,36.8,28.6,38.1,28.6L38.1,28.6z
		 M45.2,23.8h-4.8V19h4.8V23.8z M52.4,14.3c1.3,0,2.4,1.1,2.4,2.4s1.1,2.4,2.4,2.4c1.3,0,2.4,1.1,2.4,2.4c0,1.3-1.1,2.4-2.4,2.4
		c-1.3,0-2.4,1.1-2.4,2.4c0,1.3-1.1,2.4-2.4,2.4c-1.3,0-2.4-1.1-2.4-2.4v-9.5C50,15.4,51.1,14.3,52.4,14.3z"/>
	<path class="st0" d="M76.2,40.5c0,3.2-4.8,3.2-4.8,0S76.2,37.3,76.2,40.5"/>
	<path class="st0" d="M70.7,36.4c-0.9-0.9-2.4-0.9-3.4,0c-0.9,0.9-0.9,2.4,0,3.4c0.5,0.5,1.1,0.7,1.7,0.7s1.2-0.2,1.7-0.7
		C71.7,38.8,71.7,37.3,70.7,36.4z"/>
	<path class="st0" d="M69,40.5c-0.6,0-1.2,0.2-1.7,0.7c-0.9,0.9-0.9,2.4,0,3.4c0.9,0.9,2.4,0.9,3.4,0c0.9-0.9,0.9-2.4,0-3.4
		C70.3,40.7,69.7,40.5,69,40.5z"/>
</g>
</svg>
