<?xml version="1.0" encoding="utf-8"?>
<!-- Generator: Adobe Illustrator 21.0.2, SVG Export Plug-In . SVG Version: 6.00 Build 0)  -->
<svg version="1.1" id="Layer_1" xmlns="http://www.w3.org/2000/svg" xmlns:xlink="http://www.w3.org/1999/xlink" x="0px" y="0px"
	 viewBox="0 0 100 100" style="enable-background:new 0 0 100 100;" xml:space="preserve">
<style type="text/css">
	.st0{fill:#FFFFFF;}
</style>
<path class="st0" d="M50,11c-0.4,0-0.9,0.2-1.2,0.5l-42,34c-0.7,0.5-0.9,1.4-0.6,2.2C6.4,48.5,7.1,49,8,49h8v38
	c0,0.5,0.2,1.1,0.6,1.4C17,88.8,17.5,89,18,89s1-0.2,1.4-0.6c0.4-0.4,0.6-0.9,0.6-1.4V47c0-1.1-0.9-2-2-2h-4.3l37.6-30.4
	c0.7-0.5,1-1.4,0.7-2.3C51.6,11.5,50.8,10.9,50,11L50,11z M56.8,16.7c-0.8,0.1-1.5,0.7-1.7,1.4c-0.2,0.8,0,1.6,0.7,2.1L86.3,45H82
	c-1.1,0-2,0.9-2,2v38H26c-0.5,0-1.1,0.2-1.4,0.6C24.2,86,24,86.5,24,87s0.2,1,0.6,1.4c0.4,0.4,0.9,0.6,1.4,0.6h56c1.1,0,2-0.9,2-2
	V49h8c0.9,0,1.6-0.5,1.9-1.3c0.3-0.8,0-1.7-0.6-2.2l-35-28.3C57.9,16.8,57.3,16.6,56.8,16.7L56.8,16.7z"/>
</svg>
