<?xml version="1.0" encoding="UTF-8"?>
<svg width="100pt" height="100pt" version="1.1" viewBox="0 0 100 100" xmlns="http://www.w3.org/2000/svg">
 <path d="m49.969 10.969c-0.44531 0.015625-0.875 0.17969-1.2188 0.46875l-42 34c-0.66406 0.53125-0.91797 1.4219-0.63672 2.2227 0.28125 0.80469 1.0352 1.3398 1.8867 1.3398h8v38c-0.007812 0.53516 0.19922 1.0508 0.57422 1.4336 0.37891 0.37891 0.89062 0.59375 1.4258 0.59375s1.0469-0.21484 1.4258-0.59375c0.375-0.38281 0.58203-0.89844 0.57422-1.4336v-40c0-1.1055-0.89453-2-2-2h-4.3438l37.594-30.438c0.69531-0.52734 0.96875-1.4453 0.67578-2.2656-0.29297-0.82422-1.0859-1.3594-1.957-1.3281zm6.8125 5.6875c-0.8125 0.082031-1.4883 0.65234-1.7148 1.4336-0.23047 0.78125 0.042969 1.625 0.68359 2.1289l30.594 24.781h-4.3438c-1.1055 0-2 0.89453-2 2v38h-54c-0.53516-0.007812-1.0508 0.19922-1.4336 0.57422-0.37891 0.37891-0.59375 0.89062-0.59375 1.4258s0.21484 1.0469 0.59375 1.4258c0.38281 0.375 0.89844 0.58203 1.4336 0.57422h56c1.1055 0 2-0.89453 2-2v-38h8c0.85156 0 1.6055-0.53516 1.8867-1.3398 0.28125-0.80078 0.027343-1.6914-0.63672-2.2227l-34.969-28.312c-0.41406-0.35547-0.95703-0.52344-1.5-0.46875z"/>
</svg>
