<?xml version="1.0" encoding="UTF-8"?>
<svg width="100pt" height="100pt" version="1.1" viewBox="0 0 100 100" xmlns="http://www.w3.org/2000/svg">
 <g>
  <path d="m65.625 66.094c-0.50781 0.078125-1.0234-0.097656-1.375-0.46875l-4.9688-6.25c-0.53516-0.68359-0.41797-1.668 0.26562-2.2031s1.668-0.41797 2.2031 0.26562l4.9688 6.25c0.29297 0.44922 0.33984 1.0156 0.11719 1.5039-0.22266 0.48828-0.67969 0.82812-1.2109 0.90234z"/>
  <path d="m73.375 76.062c-0.47656-0.003906-0.92578-0.22266-1.2188-0.59375l-2.9375-3.5938c-0.30078-0.31641-0.45312-0.74609-0.42188-1.1836s0.24219-0.83984 0.58594-1.1133c0.34375-0.26953 0.78516-0.38672 1.2148-0.32031 0.43359 0.070313 0.81641 0.31641 1.0586 0.67969l2.9062 3.6875c0.31641 0.46484 0.35938 1.0586 0.11328 1.5625-0.24609 0.50391-0.74219 0.83594-1.3008 0.875z"/>
  <path d="m57.188 70.781c-0.54688 0.003906-1.0586-0.28125-1.3438-0.75l-3.5938-6c-0.27734-0.35938-0.38672-0.82031-0.30078-1.2617 0.089843-0.44531 0.36719-0.83203 0.76172-1.0547 0.39453-0.22656 0.86328-0.26562 1.293-0.11719 0.42578 0.15234 0.76953 0.48047 0.93359 0.90234l3.5938 6c0.21875 0.35547 0.28516 0.78516 0.18359 1.1875-0.097656 0.40625-0.35547 0.75391-0.71484 0.96875-0.25391 0.11328-0.53516 0.15625-0.8125 0.125z"/>
  <path d="m63.219 80.812c-0.54688 0.003906-1.0586-0.28125-1.3438-0.75l-2.5-4.0312c-0.42188-0.74219-0.17188-1.6836 0.5625-2.1172 0.73047-0.43359 1.6758-0.20312 2.125 0.52344l2.4062 4.0312c0.21875 0.35547 0.28516 0.78516 0.18359 1.1875-0.097656 0.40625-0.35547 0.75391-0.71484 0.96875-0.21875 0.12109-0.46875 0.18359-0.71875 0.1875z"/>
  <path d="m78.125 53.312c-0.35156-0.003906-0.69531-0.125-0.96875-0.34375l-6.25-4.9688c-0.36328-0.24219-0.60938-0.625-0.67969-1.0586-0.066406-0.42969 0.050782-0.87109 0.32031-1.2148 0.27344-0.34375 0.67578-0.55469 1.1133-0.58594s0.86719 0.12109 1.1836 0.42188l6.25 4.9688c0.51562 0.41406 0.71484 1.1094 0.49609 1.7344-0.21484 0.625-0.80469 1.043-1.4648 1.0469z"/>
  <path d="m88.25 61.188c-0.35156-0.003906-0.69531-0.125-0.96875-0.34375l-3.6875-2.9062c-0.32812-0.25781-0.53906-0.63281-0.58984-1.0469-0.050781-0.41406 0.066406-0.82812 0.32422-1.1562 0.53516-0.68359 1.5195-0.80078 2.2031-0.26562l3.6875 2.9062c0.54297 0.40625 0.76172 1.1172 0.53906 1.7578-0.21875 0.64453-0.82812 1.0703-1.5078 1.0547z"/>
  <path d="m84.125 44c-0.28906-0.007812-0.57031-0.09375-0.8125-0.25l-6-3.5938c-0.41406-0.17969-0.73047-0.52734-0.86719-0.95703-0.13672-0.42578-0.085937-0.89453 0.14844-1.2812 0.23047-0.38672 0.61719-0.65234 1.0625-0.73438 0.44141-0.078125 0.89844 0.035156 1.25 0.31641l6 3.5938c0.60156 0.35938 0.89453 1.0742 0.71094 1.75-0.17969 0.67578-0.79297 1.1484-1.4922 1.1562z"/>
  <path d="m94.156 50c-0.28516 0.003906-0.56641-0.070312-0.8125-0.21875l-4.0312-2.4062c-0.36328-0.20703-0.62891-0.55078-0.73828-0.95703-0.10547-0.40625-0.046875-0.83594 0.16797-1.1992 0.21484-0.35938 0.5625-0.61719 0.96875-0.71875 0.41016-0.10156 0.83984-0.03125 1.1953 0.1875l4.0312 2.4062c0.60156 0.35938 0.89453 1.0742 0.71094 1.75-0.17969 0.67578-0.79297 1.1484-1.4922 1.1562z"/>
  <path d="m73.625 61.344c-0.41406-0.007812-0.80469-0.17578-1.0938-0.46875l-6.5312-6.5c-0.61328-0.61328-0.61328-1.6055 0-2.2188s1.6055-0.61328 2.2188 0l6.5312 6.5c0.46484 0.44922 0.60547 1.1328 0.35938 1.7305-0.25 0.59375-0.83984 0.97266-1.4844 0.95703z"/>
  <path d="m83.5 71.125c-0.41406-0.007812-0.80469-0.17578-1.0938-0.46875l-3.3438-3.2812c-0.53516-0.61719-0.50781-1.5391 0.066406-2.1211 0.57422-0.58203 1.4961-0.625 2.1211-0.097656l3.3125 3.3125c0.43359 0.44141 0.56641 1.0977 0.33594 1.6758-0.23047 0.57422-0.77734 0.96094-1.3984 0.98047z"/>
  <path d="m72.906 33.906l-2.4062-1.4375 6.6562-6.6562-1.0938-1.125c-3.7305-3.6914-8.457-6.2227-13.602-7.2734-5.1445-1.0547-10.484-0.58984-15.367 1.3359-2.1641-1.9414-5.043-2.8828-7.9375-2.5938-1.2578-3.4492-3.5586-6.4219-6.582-8.5039-3.0234-2.0859-6.6211-3.1758-10.293-3.1211-4.7734 0.023438-9.3398 1.9336-12.711 5.3086-3.3711 3.3789-5.2734 7.9492-5.2891 12.723v73.031h9.375v-73.031c0.039062-2.2148 0.97656-4.3164 2.5977-5.8242 1.6211-1.5117 3.7852-2.293 5.9961-2.1758 4.3438-0.10156 8.0273 3.1719 8.4375 7.5-1.625 3.6094-1.0547 7.8281 1.4688 10.875-2.2031 4.9922-2.8477 10.531-1.8477 15.895 0.99609 5.3672 3.5898 10.305 7.4414 14.168l1.0938 1.0938 8.375-8.375 1.375 2.3125c0.28516 0.46875 0.79688 0.75391 1.3438 0.75 0.28516 0 0.56641-0.074219 0.8125-0.21875 0.41016-0.20703 0.70703-0.58203 0.81641-1.0273 0.10547-0.44531 0.015625-0.91406-0.25391-1.2852l-1.7812-3.125 2.875-2.875 1.875 2.375c0.53516 0.68359 1.5195 0.80078 2.2031 0.26562s0.80078-1.5195 0.26562-2.2031l-2.0938-2.6562 2.5938-2.5938 2.125 2.4688c0.61328 0.61328 1.6055 0.61328 2.2188 0s0.61328-1.6055 0-2.2188l-2.2188-2.1875 2.5938-2.5938 2.6562 2.125c0.66406 0.5625 1.6562 0.47656 2.2188-0.1875s0.47656-1.6562-0.1875-2.2188l-2.375-1.875 3.9375-3.9375 3.125 1.8438c0.75781 0.42969 1.7266 0.16406 2.1562-0.59375s0.16406-1.7266-0.59375-2.1562zm-50.656-22.469c-3.0469-0.14453-6.0195 0.96094-8.2344 3.0625-2.2109 2.0977-3.4727 5.0117-3.4844 8.0625v69.906h-3.125v-69.906c-0.015625-3.9609 1.5352-7.7656 4.3164-10.582 2.7852-2.8164 6.5664-4.418 10.527-4.4492 2.9883-0.039062 5.918 0.83984 8.3945 2.5156 2.4727 1.6758 4.375 4.0703 5.4492 6.8594-1.0312 0.44922-1.9805 1.0586-2.8125 1.8125-1.5312-5.4375-5.625-7.2812-11.031-7.2812zm12.75 9.75c2.3398-2.2891 5.918-2.7383 8.75-1.0938-4.1719 2.2773-7.6602 5.6367-10.094 9.7188-1.5156-2.8555-0.96875-6.3672 1.3438-8.625zm3.9062 38.438c-5.3477-6.1641-7.1953-14.625-4.8984-22.457 2.2969-7.832 8.4219-13.957 16.254-16.254 7.832-2.2969 16.293-0.44922 22.457 4.8984z"/>
 </g>
</svg>
