<?xml version="1.0" encoding="utf-8"?>
<!-- Generator: Adobe Illustrator 21.0.2, SVG Export Plug-In . SVG Version: 6.00 Build 0)  -->
<svg version="1.1" id="Layer_1" xmlns="http://www.w3.org/2000/svg" xmlns:xlink="http://www.w3.org/1999/xlink" x="0px" y="0px"
	 viewBox="0 0 100 100" style="enable-background:new 0 0 100 100;" xml:space="preserve">
<style type="text/css">
	.st0{fill:#FFFFFF;}
</style>
<g>
	<path class="st0" d="M65.6,66.1c-0.5,0.1-1-0.1-1.4-0.5l-5-6.2c-0.5-0.7-0.4-1.7,0.3-2.2s1.7-0.4,2.2,0.3l5,6.2
		c0.3,0.4,0.3,1,0.1,1.5C66.6,65.7,66.2,66,65.6,66.1L65.6,66.1z"/>
	<path class="st0" d="M73.4,76.1c-0.5,0-0.9-0.2-1.2-0.6l-2.9-3.6c-0.3-0.3-0.5-0.7-0.4-1.2s0.2-0.8,0.6-1.1
		c0.3-0.3,0.8-0.4,1.2-0.3c0.4,0.1,0.8,0.3,1.1,0.7l2.9,3.7c0.3,0.5,0.4,1.1,0.1,1.6C74.4,75.7,73.9,76,73.4,76.1L73.4,76.1z"/>
	<path class="st0" d="M57.2,70.8c-0.5,0-1.1-0.3-1.3-0.8l-3.6-6c-0.3-0.4-0.4-0.8-0.3-1.3c0.1-0.4,0.4-0.8,0.8-1.1
		c0.4-0.2,0.9-0.3,1.3-0.1c0.4,0.2,0.8,0.5,0.9,0.9l3.6,6c0.2,0.4,0.3,0.8,0.2,1.2c-0.1,0.4-0.4,0.8-0.7,1
		C57.7,70.8,57.5,70.8,57.2,70.8L57.2,70.8z"/>
	<path class="st0" d="M63.2,80.8c-0.5,0-1.1-0.3-1.3-0.8l-2.5-4c-0.4-0.7-0.2-1.7,0.6-2.1c0.7-0.4,1.7-0.2,2.1,0.5l2.4,4
		c0.2,0.4,0.3,0.8,0.2,1.2c-0.1,0.4-0.4,0.8-0.7,1C63.7,80.7,63.5,80.8,63.2,80.8L63.2,80.8z"/>
	<path class="st0" d="M78.1,53.3c-0.4,0-0.7-0.1-1-0.3l-6.2-5c-0.4-0.2-0.6-0.6-0.7-1.1c-0.1-0.4,0.1-0.9,0.3-1.2
		c0.3-0.3,0.7-0.6,1.1-0.6s0.9,0.1,1.2,0.4l6.2,5c0.5,0.4,0.7,1.1,0.5,1.7C79.4,52.9,78.8,53.3,78.1,53.3L78.1,53.3z"/>
	<path class="st0" d="M88.2,61.2c-0.4,0-0.7-0.1-1-0.3l-3.7-2.9c-0.3-0.3-0.5-0.6-0.6-1c-0.1-0.4,0.1-0.8,0.3-1.2
		c0.5-0.7,1.5-0.8,2.2-0.3l3.7,2.9c0.5,0.4,0.8,1.1,0.5,1.8C89.5,60.8,88.9,61.2,88.2,61.2L88.2,61.2z"/>
	<path class="st0" d="M84.1,44c-0.3,0-0.6-0.1-0.8-0.2l-6-3.6c-0.4-0.2-0.7-0.5-0.9-1c-0.1-0.4-0.1-0.9,0.1-1.3
		c0.2-0.4,0.6-0.7,1.1-0.7c0.4-0.1,0.9,0,1.2,0.3l6,3.6c0.6,0.4,0.9,1.1,0.7,1.8C85.4,43.5,84.8,44,84.1,44L84.1,44z"/>
	<path class="st0" d="M94.2,50c-0.3,0-0.6-0.1-0.8-0.2l-4-2.4c-0.4-0.2-0.6-0.6-0.7-1c-0.1-0.4,0-0.8,0.2-1.2c0.2-0.4,0.6-0.6,1-0.7
		c0.4-0.1,0.8,0,1.2,0.2l4,2.4c0.6,0.4,0.9,1.1,0.7,1.8C95.5,49.5,94.9,50,94.2,50L94.2,50z"/>
	<path class="st0" d="M73.6,61.3c-0.4,0-0.8-0.2-1.1-0.5L66,54.4c-0.6-0.6-0.6-1.6,0-2.2s1.6-0.6,2.2,0l6.5,6.5
		c0.5,0.4,0.6,1.1,0.4,1.7C74.9,61,74.3,61.4,73.6,61.3L73.6,61.3z"/>
	<path class="st0" d="M83.5,71.1c-0.4,0-0.8-0.2-1.1-0.5l-3.3-3.3c-0.5-0.6-0.5-1.5,0.1-2.1c0.6-0.6,1.5-0.6,2.1-0.1l3.3,3.3
		c0.4,0.4,0.6,1.1,0.3,1.7C84.7,70.7,84.1,71.1,83.5,71.1L83.5,71.1z"/>
	<path class="st0" d="M72.9,33.9l-2.4-1.4l6.7-6.7l-1.1-1.1c-3.7-3.7-8.5-6.2-13.6-7.3c-5.1-1.1-10.5-0.6-15.4,1.3
		c-2.2-1.9-5-2.9-7.9-2.6c-1.3-3.4-3.6-6.4-6.6-8.5c-3-2.1-6.6-3.2-10.3-3.1c-4.8,0-9.3,1.9-12.7,5.3c-3.4,3.4-5.3,7.9-5.3,12.7v73
		h9.4v-73c0-2.2,1-4.3,2.6-5.8c1.6-1.5,3.8-2.3,6-2.2c4.3-0.1,8,3.2,8.4,7.5c-1.6,3.6-1.1,7.8,1.5,10.9c-2.2,5-2.8,10.5-1.8,15.9
		c1,5.4,3.6,10.3,7.4,14.2l1.1,1.1l8.4-8.4l1.4,2.3c0.3,0.5,0.8,0.8,1.3,0.8c0.3,0,0.6-0.1,0.8-0.2c0.4-0.2,0.7-0.6,0.8-1
		c0.1-0.4,0-0.9-0.3-1.3l-1.8-3.1l2.9-2.9l1.9,2.4c0.5,0.7,1.5,0.8,2.2,0.3s0.8-1.5,0.3-2.2L54.7,48l2.6-2.6l2.1,2.5
		c0.6,0.6,1.6,0.6,2.2,0s0.6-1.6,0-2.2l-2.2-2.2l2.6-2.6l2.7,2.1c0.7,0.6,1.7,0.5,2.2-0.2s0.5-1.7-0.2-2.2l-2.4-1.9l3.9-3.9l3.1,1.8
		c0.8,0.4,1.7,0.2,2.2-0.6S73.7,34.3,72.9,33.9L72.9,33.9z M22.2,11.4c-3-0.1-6,1-8.2,3.1c-2.2,2.1-3.5,5-3.5,8.1v69.9H7.4V22.6
		c0-4,1.5-7.8,4.3-10.6c2.8-2.8,6.6-4.4,10.5-4.4c3,0,5.9,0.8,8.4,2.5c2.5,1.7,4.4,4.1,5.4,6.9c-1,0.4-2,1.1-2.8,1.8
		C31.7,13.3,27.7,11.4,22.2,11.4L22.2,11.4z M35,21.2c2.3-2.3,5.9-2.7,8.8-1.1c-4.2,2.3-7.7,5.6-10.1,9.7C32.1,27,32.7,23.4,35,21.2
		L35,21.2z M38.9,59.6C33.6,53.5,31.7,45,34,37.2s8.4-14,16.3-16.3c7.8-2.3,16.3-0.4,22.5,4.9L38.9,59.6z"/>
</g>
</svg>
