<?xml version="1.0" encoding="UTF-8"?>
<svg width="100pt" height="100pt" version="1.1" viewBox="0 0 100 100" xmlns="http://www.w3.org/2000/svg">
 <g>
  <path d="m8.332 2.082c-1.1484 0-2.082 0.93359-2.082 2.082v43.75c0 1.1523 0.93359 2.0859 2.082 2.0859h53.988c0.55859 0.007812 1.0977-0.20703 1.4922-0.60156 0.39844-0.39063 0.62109-0.92578 0.62109-1.4844 0-0.55469-0.22266-1.0898-0.62109-1.4805-0.39453-0.39453-0.93359-0.60938-1.4922-0.60156h-51.902v-39.582h60.238l0.17969 10.762h-0.003907c0.007813 0.55469 0.23828 1.082 0.63281 1.4648 0.39844 0.38672 0.93359 0.59766 1.4844 0.58984 0.55469-0.011718 1.082-0.23828 1.4648-0.63672 0.38672-0.39844 0.59766-0.93359 0.58594-1.4883l-0.21484-12.809c-0.019531-1.1367-0.94531-2.0508-2.0859-2.0508z" fill-rule="evenodd"/>
  <path d="m87.469 33.332c-0.55469 0.011719-1.082 0.23828-1.4648 0.63281-0.38281 0.39844-0.59766 0.93359-0.58594 1.4844v14.551h-20.82v-14.551h-0.003906c0-0.75-0.40234-1.4414-1.0547-1.8125-0.65234-0.36719-1.4531-0.35938-2.0977 0.027343l-9.0156 5.4023-3.0156-3.0117c-0.38672-0.40234-0.92188-0.63672-1.4805-0.64063-0.5625-0.007812-1.1016 0.21484-1.4961 0.60938-0.39844 0.39453-0.61719 0.93359-0.61328 1.4961 0.007813 0.55859 0.23828 1.0938 0.64453 1.4805l4.168 4.1602h-0.003906c0.67578 0.67578 1.7266 0.80469 2.5469 0.3125l7.2539-4.3516v12.961c0 1.1523 0.93359 2.0859 2.082 2.0859h24.988c1.1523 0 2.082-0.93359 2.082-2.0859v-16.633c0.011719-0.5625-0.21094-1.1055-0.60938-1.5039-0.39844-0.40234-0.94141-0.62109-1.5039-0.61328z" fill-rule="evenodd"/>
  <path d="m75 14.582c4.5781 0 8.332 3.7539 8.332 8.332 0 4.5781-3.7539 8.332-8.332 8.332s-8.332-3.7539-8.332-8.332c0-4.5781 3.7539-8.332 8.332-8.332zm0 4.168c-2.3242 0-4.168 1.8398-4.168 4.168 0 2.3242 1.8398 4.168 4.168 4.168 2.3242 0 4.168-1.8398 4.168-4.168 0-2.3242-1.8398-4.168-4.168-4.168z"/>
  <path d="m14.582 62.5c-4.5781 0-8.332 3.7539-8.332 8.332s3.7539 8.332 8.332 8.332 8.332-3.7539 8.332-8.332-3.7539-8.332-8.332-8.332zm0 4.168c2.3242 0 4.168 1.8398 4.168 4.168 0 2.3242-1.8398 4.168-4.168 4.168-2.3242 0-4.168-1.8398-4.168-4.168 0-2.3242 1.8398-4.168 4.168-4.168z"/>
  <path d="m2.0508 79.172c-1.1484 0.015625-2.0664 0.96094-2.0508 2.1094v14.551c0 1.1523 0.93359 2.0859 2.082 2.0859h25c1.1523 0 2.0859-0.93359 2.0859-2.0859v-14.551c0.007812-0.55469-0.21094-1.0938-0.60156-1.4922-0.39062-0.39453-0.92578-0.62109-1.4844-0.62109-0.55469 0-1.0898 0.22656-1.4805 0.62109-0.39453 0.39844-0.60937 0.9375-0.60156 1.4922v12.469h-20.832v-12.469c0.007812-0.5625-0.21484-1.1055-0.61328-1.5-0.39844-0.39844-0.94141-0.62109-1.5039-0.60938z" fill-rule="evenodd"/>
  <path d="m85.418 62.5c-4.5781 0-8.332 3.7539-8.332 8.332s3.7539 8.332 8.332 8.332 8.332-3.7539 8.332-8.332-3.7539-8.332-8.332-8.332zm0 4.168c2.3242 0 4.168 1.8398 4.168 4.168 0 2.3242-1.8398 4.168-4.168 4.168-2.3242 0-4.168-1.8398-4.168-4.168 0-2.3242 1.8398-4.168 4.168-4.168z"/>
  <path d="m72.883 79.172c-1.1484 0.015625-2.0664 0.96094-2.0508 2.1094v14.551c0 1.1523 0.93359 2.0859 2.0859 2.0859h25c1.1484 0 2.082-0.93359 2.082-2.0859v-14.551c0.007812-0.55469-0.20703-1.0938-0.60156-1.4922-0.39063-0.39453-0.92578-0.62109-1.4805-0.62109-0.55859 0-1.0938 0.22656-1.4844 0.62109-0.39062 0.39844-0.60938 0.9375-0.60156 1.4922v12.469h-20.832v-12.469c0.007812-0.5625-0.21094-1.1055-0.61328-1.5-0.39844-0.39844-0.94141-0.62109-1.5039-0.60938z" fill-rule="evenodd"/>
  <path d="m50 62.5c-4.5781 0-8.332 3.7539-8.332 8.332s3.7539 8.332 8.332 8.332 8.332-3.7539 8.332-8.332-3.7539-8.332-8.332-8.332zm0 4.168c2.3242 0 4.168 1.8398 4.168 4.168 0 2.3242-1.8398 4.168-4.168 4.168-2.3242 0-4.168-1.8398-4.168-4.168 0-2.3242 1.8398-4.168 4.168-4.168z"/>
  <path d="m37.469 79.172c-1.1484 0.015625-2.0664 0.96094-2.0508 2.1094v14.551c0 1.1523 0.92969 2.0859 2.082 2.0859h25c1.1523 0 2.082-0.93359 2.082-2.0859v-14.551c0.007813-0.55469-0.20703-1.0938-0.59766-1.4922-0.39062-0.39453-0.92578-0.62109-1.4844-0.62109s-1.0938 0.22656-1.4844 0.62109c-0.39062 0.39844-0.60547 0.9375-0.59766 1.4922v12.469h-20.832v-12.469h-0.003907c0.007813-0.5625-0.21094-1.1055-0.60938-1.5-0.39844-0.39844-0.94141-0.62109-1.5039-0.60938z" fill-rule="evenodd"/>
 </g>
</svg>
