<?xml version="1.0" encoding="utf-8"?>
<!-- Generator: Adobe Illustrator 21.0.2, SVG Export Plug-In . SVG Version: 6.00 Build 0)  -->
<svg version="1.1" id="Layer_1" xmlns="http://www.w3.org/2000/svg" xmlns:xlink="http://www.w3.org/1999/xlink" x="0px" y="0px"
	 viewBox="0 0 100 100" style="enable-background:new 0 0 100 100;" xml:space="preserve">
<style type="text/css">
	.st0{fill:#FFFFFF;}
</style>
<g>
	<path class="st0" d="M8.3,2.1C7.2,2.1,6.2,3,6.2,4.2v43.8c0,1.2,0.9,2.1,2.1,2.1h54c0.6,0,1.1-0.2,1.5-0.6c0.4-0.4,0.6-0.9,0.6-1.5
		c0-0.6-0.2-1.1-0.6-1.5c-0.4-0.4-0.9-0.6-1.5-0.6H10.4V6.2h60.2L70.8,17h0c0,0.6,0.2,1.1,0.6,1.5c0.4,0.4,0.9,0.6,1.5,0.6
		c0.6,0,1.1-0.2,1.5-0.6c0.4-0.4,0.6-0.9,0.6-1.5L74.8,4.1c0-1.1-0.9-2.1-2.1-2.1L8.3,2.1z"/>
	<path class="st0" d="M87.5,33.3c-0.6,0-1.1,0.2-1.5,0.6c-0.4,0.4-0.6,0.9-0.6,1.5V50H64.6V35.4h0c0-0.8-0.4-1.4-1.1-1.8
		c-0.7-0.4-1.5-0.4-2.1,0l-9,5.4l-3-3c-0.4-0.4-0.9-0.6-1.5-0.6c-0.6,0-1.1,0.2-1.5,0.6c-0.4,0.4-0.6,0.9-0.6,1.5
		c0,0.6,0.2,1.1,0.6,1.5l4.2,4.2h0c0.7,0.7,1.7,0.8,2.5,0.3l7.3-4.4v13c0,1.2,0.9,2.1,2.1,2.1h25c1.2,0,2.1-0.9,2.1-2.1V35.4
		c0-0.6-0.2-1.1-0.6-1.5C88.6,33.5,88,33.3,87.5,33.3L87.5,33.3z"/>
	<path class="st0" d="M75,14.6c4.6,0,8.3,3.8,8.3,8.3s-3.8,8.3-8.3,8.3s-8.3-3.8-8.3-8.3S70.4,14.6,75,14.6z M75,18.8
		c-2.3,0-4.2,1.8-4.2,4.2c0,2.3,1.8,4.2,4.2,4.2c2.3,0,4.2-1.8,4.2-4.2C79.2,20.6,77.3,18.8,75,18.8z"/>
	<path class="st0" d="M14.6,62.5c-4.6,0-8.3,3.8-8.3,8.3s3.8,8.3,8.3,8.3s8.3-3.8,8.3-8.3S19.2,62.5,14.6,62.5z M14.6,66.7
		c2.3,0,4.2,1.8,4.2,4.2c0,2.3-1.8,4.2-4.2,4.2c-2.3,0-4.2-1.8-4.2-4.2C10.4,68.5,12.3,66.7,14.6,66.7z"/>
	<path class="st0" d="M2.1,79.2c-1.1,0-2.1,1-2.1,2.1v14.6c0,1.2,0.9,2.1,2.1,2.1h25c1.2,0,2.1-0.9,2.1-2.1V81.3
		c0-0.6-0.2-1.1-0.6-1.5c-0.4-0.4-0.9-0.6-1.5-0.6c-0.6,0-1.1,0.2-1.5,0.6c-0.4,0.4-0.6,0.9-0.6,1.5v12.5H4.2V81.3
		c0-0.6-0.2-1.1-0.6-1.5C3.2,79.4,2.6,79.2,2.1,79.2L2.1,79.2z"/>
	<path class="st0" d="M85.4,62.5c-4.6,0-8.3,3.8-8.3,8.3s3.8,8.3,8.3,8.3s8.3-3.8,8.3-8.3S90,62.5,85.4,62.5z M85.4,66.7
		c2.3,0,4.2,1.8,4.2,4.2c0,2.3-1.8,4.2-4.2,4.2c-2.3,0-4.2-1.8-4.2-4.2C81.2,68.5,83.1,66.7,85.4,66.7z"/>
	<path class="st0" d="M72.9,79.2c-1.1,0-2.1,1-2.1,2.1v14.6c0,1.2,0.9,2.1,2.1,2.1h25c1.1,0,2.1-0.9,2.1-2.1V81.3
		c0-0.6-0.2-1.1-0.6-1.5c-0.4-0.4-0.9-0.6-1.5-0.6c-0.6,0-1.1,0.2-1.5,0.6c-0.4,0.4-0.6,0.9-0.6,1.5v12.5H75V81.3
		c0-0.6-0.2-1.1-0.6-1.5C74,79.4,73.4,79.2,72.9,79.2L72.9,79.2z"/>
	<path class="st0" d="M50,62.5c-4.6,0-8.3,3.8-8.3,8.3s3.8,8.3,8.3,8.3s8.3-3.8,8.3-8.3S54.6,62.5,50,62.5z M50,66.7
		c2.3,0,4.2,1.8,4.2,4.2c0,2.3-1.8,4.2-4.2,4.2c-2.3,0-4.2-1.8-4.2-4.2C45.8,68.5,47.7,66.7,50,66.7z"/>
	<path class="st0" d="M37.5,79.2c-1.1,0-2.1,1-2.1,2.1v14.6c0,1.2,0.9,2.1,2.1,2.1h25c1.2,0,2.1-0.9,2.1-2.1V81.3
		c0-0.6-0.2-1.1-0.6-1.5c-0.4-0.4-0.9-0.6-1.5-0.6s-1.1,0.2-1.5,0.6c-0.4,0.4-0.6,0.9-0.6,1.5v12.5H39.6V81.3h0
		c0-0.6-0.2-1.1-0.6-1.5C38.6,79.4,38,79.2,37.5,79.2L37.5,79.2z"/>
</g>
</svg>
