<?xml version="1.0" encoding="UTF-8" standalone="no"?>
<!DOCTYPE svg PUBLIC "-//W3C//DTD SVG 1.1//EN" "http://www.w3.org/Graphics/SVG/1.1/DTD/svg11.dtd">
<svg version="1.1" xmlns="http://www.w3.org/2000/svg" xmlns:xlink="http://www.w3.org/1999/xlink" preserveAspectRatio="xMidYMid meet" viewBox="0 0 640 640" width="640" height="640"><defs><path d="M20.55 0.16L21.78 0.35L22.98 0.62L24.15 0.96L25.29 1.36L26.38 1.84L27.43 2.37L28.43 2.96L29.39 3.61L30.3 4.31L31.15 5.07L31.94 5.87L32.67 6.72L33.33 7.62L33.93 8.55L34.46 9.52L34.92 10.53L35.3 11.57L35.6 12.64L35.82 13.74L35.95 14.86L36 16L35.97 16.71L35.9 17.41L35.78 18.1L35.61 18.77L35.4 19.42L35.15 20.05L34.85 20.65L34.52 21.24L34.15 21.8L33.74 22.33L33.3 22.83L32.83 23.3L32.33 23.74L31.8 24.15L31.24 24.52L30.65 24.85L30.05 25.15L29.42 25.4L28.77 25.61L28.1 25.78L27.41 25.9L26.71 25.97L26 26L22.46 26L22.25 26.01L22.03 26.03L21.83 26.07L21.63 26.12L21.43 26.18L21.24 26.26L21.06 26.34L20.89 26.44L20.72 26.55L20.56 26.68L20.41 26.81L20.27 26.95L20.14 27.1L20.01 27.26L19.9 27.43L19.8 27.6L19.72 27.78L19.64 27.97L19.58 28.17L19.53 28.37L19.49 28.57L19.47 28.79L19.46 29L19.46 29.1L19.47 29.2L19.48 29.29L19.49 29.39L19.5 29.49L19.52 29.58L19.54 29.67L19.56 29.77L19.59 29.86L19.62 29.95L19.65 30.04L19.69 30.12L19.72 30.21L19.76 30.29L19.8 30.38L19.85 30.46L19.9 30.54L19.94 30.62L20 30.69L20.05 30.77L20.1 30.84L20.16 30.91L20.22 30.98L20.28 31.05L20.34 31.12L20.4 31.2L20.45 31.28L20.51 31.35L20.56 31.43L20.6 31.52L20.65 31.6L20.69 31.68L20.73 31.77L20.77 31.86L20.81 31.94L20.84 32.03L20.87 32.13L20.9 32.22L20.92 32.31L20.94 32.41L20.96 32.5L20.97 32.6L20.98 32.7L20.99 32.8L21 32.9L21 33L20.99 33.21L20.97 33.43L20.93 33.63L20.88 33.83L20.82 34.03L20.74 34.22L20.66 34.4L20.56 34.57L20.45 34.74L20.32 34.9L20.19 35.05L20.05 35.19L19.9 35.32L19.74 35.45L19.57 35.56L19.4 35.66L19.22 35.74L19.03 35.82L18.83 35.88L18.63 35.93L18.43 35.97L18.21 35.99L18 36L16.71 35.95L15.45 35.82L14.22 35.6L13.02 35.3L11.85 34.92L10.71 34.46L9.62 33.93L8.57 33.33L7.57 32.67L6.61 31.94L5.7 31.15L4.85 30.3L4.06 29.39L3.33 28.43L2.67 27.43L2.07 26.38L1.54 25.29L1.08 24.15L0.7 22.98L0.4 21.78L0.18 20.55L0.05 19.29L0 18L0.05 16.71L0.18 15.45L0.4 14.22L0.7 13.02L1.08 11.85L1.54 10.71L2.07 9.62L2.67 8.57L3.33 7.57L4.06 6.61L4.85 5.7L5.7 4.85L6.61 4.06L7.57 3.33L8.57 2.67L9.62 2.07L10.71 1.54L11.85 1.08L13.02 0.7L14.22 0.4L15.45 0.18L16.71 0.05L18 0L19.29 0.04L20.55 0.16ZM26.88 12.88L26.24 13.83L26 15L26.24 16.17L26.88 17.12L27.83 17.76L29 18L30.17 17.76L31.12 17.12L31.76 16.17L32 15L31.76 13.83L31.12 12.88L30.17 12.24L29 12L27.83 12.24L26.88 12.88ZM4.88 12.88L4.24 13.83L4 15L4.24 16.17L4.88 17.12L5.83 17.76L7 18L8.17 17.76L9.12 17.12L9.76 16.17L10 15L9.76 13.83L9.12 12.88L8.17 12.24L7 12L5.83 12.24L4.88 12.88ZM10.88 4.88L10.24 5.83L10 7L10.24 8.17L10.88 9.12L11.83 9.76L13 10L14.17 9.76L15.12 9.12L15.76 8.17L16 7L15.76 5.83L15.12 4.88L14.17 4.24L13 4L11.83 4.24L10.88 4.88ZM20.88 4.88L20.24 5.83L20 7L20.24 8.17L20.88 9.12L21.83 9.76L23 10L24.17 9.76L25.12 9.12L25.76 8.17L26 7L25.76 5.83L25.12 4.88L24.17 4.24L23 4L21.83 4.24L20.88 4.88Z" id="b1p7srl967"></path></defs><g><g><g><use xlink:href="#b1p7srl967" opacity="1" fill="#ffef00" fill-opacity="1"></use><g><use xlink:href="#b1p7srl967" opacity="1" fill-opacity="0" stroke="#000000" stroke-width="1" stroke-opacity="0"></use></g></g></g></g></svg>