<?xml version="1.0" encoding="UTF-8" standalone="no"?>
<!DOCTYPE svg PUBLIC "-//W3C//DTD SVG 1.1//EN" "http://www.w3.org/Graphics/SVG/1.1/DTD/svg11.dtd">
<svg version="1.1" xmlns="http://www.w3.org/2000/svg" xmlns:xlink="http://www.w3.org/1999/xlink" preserveAspectRatio="xMidYMid meet" viewBox="0 0 640 640" width="640" height="640"><defs><path d="M0 0L48 0L48 48L0 48L0 0Z" id="h34WM8Gz0C"></path><path d="M27.2 19.8C29 15.2 28 9.8 24.2 6C20.2 2 14.2 1.2 9.4 3.4C9.97 3.97 12.84 6.84 18 12L12 18C6.72 12.84 3.79 9.97 3.2 9.4C0.8 14.2 1.8 20.2 5.8 24.2C9.6 28 15 29 19.6 27.2C21.42 29.02 35.98 43.58 37.8 45.4C38.6 46.2 39.8 46.2 40.6 45.4C41.06 44.94 44.74 41.26 45.2 40.8C46.2 40 46.2 38.6 45.4 38C41.76 34.36 29.02 21.62 27.2 19.8Z" id="aw4sZyeW"></path></defs><g><g><g><use xlink:href="#h34WM8Gz0C" opacity="1" fill="#000000" fill-opacity="0"></use><g><use xlink:href="#h34WM8Gz0C" opacity="1" fill-opacity="0" stroke="#000000" stroke-width="1" stroke-opacity="0"></use></g></g><g><use xlink:href="#aw4sZyeW" opacity="1" fill="#41404d" fill-opacity="1"></use><g><use xlink:href="#aw4sZyeW" opacity="1" fill-opacity="0" stroke="#000000" stroke-width="1" stroke-opacity="0"></use></g></g></g></g></svg>