<?xml version="1.0" encoding="UTF-8" standalone="no"?>
<!DOCTYPE svg PUBLIC "-//W3C//DTD SVG 1.1//EN" "http://www.w3.org/Graphics/SVG/1.1/DTD/svg11.dtd">
<svg version="1.1" xmlns="http://www.w3.org/2000/svg" xmlns:xlink="http://www.w3.org/1999/xlink" preserveAspectRatio="xMidYMid meet" viewBox="0 0 640 640" width="640" height="640"><defs><path d="M114.67 44.67L151.07 81.07L187.33 117.33L205.33 99.33L223.33 81.33C201.73 59.73 189.73 47.73 187.33 45.33C167.6 25.47 151.07 9.33 150.67 9.33C150.27 9.33 142 17.33 132.27 27.07C129.92 29.41 124.05 35.28 114.67 44.67Z" id="aDBW1z79G"></path><path d="M61.33 99.33C61.33 100.13 101.87 141.2 151.33 190.67C157.33 196.67 187.33 226.67 241.33 280.67L259.6 262.27L278 244C224 190 194 160 188 154C138.53 104.53 97.33 64 96.67 64C95.87 64 87.6 71.6 78.27 81.07C68.93 90.4 61.33 98.67 61.33 99.33Z" id="abfJLZXLA"></path><path d="M6 153.33L42.4 189.73L78.67 226L96.67 208L114.67 190L78.27 153.6L42 117.33L24 135.33L6 153.33Z" id="apxUoXuP"></path><path d="M6.67 290.67L83.33 290.67L160 290.67L160 278L160 265.33L83.33 265.33L6.67 265.33L6.67 278L6.67 290.67Z" id="cDUkWyHfC"></path></defs><g><g><g><use xlink:href="#aDBW1z79G" opacity="1" fill="#f8c43d" fill-opacity="1"></use><g><use xlink:href="#aDBW1z79G" opacity="1" fill-opacity="0" stroke="#000000" stroke-width="1" stroke-opacity="0"></use></g></g><g><use xlink:href="#abfJLZXLA" opacity="1" fill="#f8c43d" fill-opacity="1"></use><g><use xlink:href="#abfJLZXLA" opacity="1" fill-opacity="0" stroke="#000000" stroke-width="1" stroke-opacity="0"></use></g></g><g><use xlink:href="#apxUoXuP" opacity="1" fill="#f8c43d" fill-opacity="1"></use><g><use xlink:href="#apxUoXuP" opacity="1" fill-opacity="0" stroke="#000000" stroke-width="1" stroke-opacity="0"></use></g></g><g><use xlink:href="#cDUkWyHfC" opacity="1" fill="#f8c43d" fill-opacity="1"></use><g><use xlink:href="#cDUkWyHfC" opacity="1" fill-opacity="0" stroke="#000000" stroke-width="1" stroke-opacity="0"></use></g></g></g></g></svg>