<?xml version="1.0" encoding="UTF-8" standalone="no"?>
<!DOCTYPE svg PUBLIC "-//W3C//DTD SVG 1.1//EN" "http://www.w3.org/Graphics/SVG/1.1/DTD/svg11.dtd">
<svg version="1.1" xmlns="http://www.w3.org/2000/svg" xmlns:xlink="http://www.w3.org/1999/xlink" preserveAspectRatio="xMidYMid meet" viewBox="0 0 640 640" width="640" height="640"><defs><path d="M17.22 15C17.22 16.65 15.87 18 14.22 18C13.67 18 9.29 18 8.75 18C7.94 18 7.17 17.68 6.61 17.11C6.02 16.51 1.31 11.72 0.72 11.12C0.72 11.12 1.67 10.2 1.7 10.19C1.86 10.04 2.06 9.97 2.29 9.97C2.45 9.97 2.6 10.01 2.74 10.09C2.77 10.1 5.97 11.93 5.97 11.93C5.97 11.04 5.97 3.89 5.97 3C5.97 2.38 6.47 1.88 7.1 1.88C7.72 1.88 8.22 2.38 8.22 3C8.22 3.35 8.22 5.1 8.22 8.25L8.97 8.25C8.97 3.97 8.97 1.6 8.97 1.13C8.97 0.5 9.47 0 10.1 0C10.72 0 11.22 0.5 11.22 1.13C11.22 1.6 11.22 3.97 11.22 8.25L11.97 8.25C11.97 4.43 11.97 2.3 11.97 1.88C11.97 1.25 12.47 0.75 13.1 0.75C13.72 0.75 14.22 1.25 14.22 1.88C14.22 2.3 14.22 4.43 14.22 8.25L14.97 8.25C14.97 5.78 14.97 4.4 14.97 4.13C14.97 3.5 15.47 3 16.1 3C16.72 3 17.22 3.5 17.22 4.13C17.22 6.3 17.22 13.91 17.22 15Z" id="a3tZgGMC8p"></path></defs><g><g><g><use xlink:href="#a3tZgGMC8p" opacity="1" fill="#161074" fill-opacity="1"></use><g><use xlink:href="#a3tZgGMC8p" opacity="1" fill-opacity="0" stroke="#000000" stroke-width="1" stroke-opacity="0"></use></g></g></g></g></svg>